<svg xmlns="http://www.w3.org/2000/svg" xml:space="preserve" style="fill-rule:evenodd;clip-rule:evenodd;stroke-linejoin:round;stroke-miterlimit:2" viewBox="0 0 512 512"><path d="M0-8.547c.055-1.295-.316-2.512-.365-3.751a61.605 61.605 0 0 1 .089-6.153c.075-1.26.1-2.523.213-3.779.172-1.898.344-3.785.8-5.659 1.005-4.127 2.765-7.963 4.28-11.898.824-2.14 2.162-3.939 3.496-5.746.805-1.091 1.753-1.227 2.759-.368 1.717 1.465 3.621 2.708 4.999 4.577 1.825 2.473 3.63 4.96 5.465 7.423 1.763 2.368 2.964 5.023 3.98 7.726 1.015 2.703 1.917 5.475 2.492 8.329.311 1.537.734 3.053.688 4.645-.006.216.138.435.213.654.485-.12.578-.54.8-.828 2.074-2.691 4.711-4.54 8.08-5.145 3.105-.558 5.556.645 6.851 3.731.982 2.341 1.324 4.755 1.291 7.305-.03 2.351-.409 4.633-.742 6.933-.17 1.175.126 1.581 1.275 1.973 2.303.786 4.458.149 6.516-.737 2.815-1.211 5.362-2.937 7.808-4.762 2.81-2.098 5.253-4.618 7.724-7.105 1.705-1.716 2.874-3.853 4.631-5.51.392-.37.425-.784.169-1.378-1.135-2.638.538-6.35 3.111-7.311 4.341-1.622 6.457 1.495 6.665 4.709.166 2.55-.9 4.235-3.048 5.407-.283.155-.554.282-.869.277-.963-.016-1.365.384-1.579 1.399C77.01-9.876 76.077-6.194 75.2-2.5c-1.058 4.46-2.179 8.903-3.492 13.297-.609 2.037-1.295 4.065-1.709 6.145-.552 2.764-1.724 5.349-2.188 8.126-.12.713-.473.931-1.198.932-1.731.001-3.415-.395-5.132-.502-4.337-.271-8.671-.729-13.012-.8-4.595-.076-9.194-.357-13.792-.094-2.945.169-5.928.133-8.823.618-3.973.666-7.988 1.049-11.939 1.831-2.069.41-4.131.869-6.19 1.334-2.202.497-4.413.943-6.574 1.604-2.385.73-4.766 1.481-7.158 2.188-2.632.777-5.229 1.649-7.828 2.532-3.687 1.252-7.325 2.695-11.196 3.335-1.012.167-2.462-.508-2.984-1.38-1.957-3.274-3.962-6.521-5.844-9.838-.847-1.493-1.613-3.044-2.567-4.467-2.234-3.333-4.082-6.887-6.039-10.377-1.273-2.268-2.347-4.648-3.542-6.961-.488-.943-1.126-1.807-1.487-2.82-.218-.613-.714-.417-1.135-.357-2.122.304-3.813-.501-4.892-2.256-1.213-1.974-1.446-4.137-.357-6.296.686-1.36 3.576-2.5 5.069-2.039 1.412.436 2.566 1.289 3.638 2.265 1.213 1.106 1.162 2.59 1.051 4.025-.046.59.113.932.544 1.193 2.374 1.436 4.422 3.343 6.861 4.69 2.09 1.153 4.072 2.452 6.392 3.213 2.062.675 3.961 1.824 6.077 2.431 2.179.624 4.318 1.406 6.623 1.411 1.889.005 3.662-.322 5.083-1.736.335-.334.347-.571.171-.976-.751-1.728-1.588-3.432-2.164-5.219-1.11-3.446-1.813-6.947-.762-10.582.756-2.615 2.865-4.327 5.63-4.243 3.499.107 6.684 1.116 9.269 3.616.064.062.192.056.396.11" style="fill:#f2c230;fill-rule:nonzero" transform="translate(203.219 279.074) scale(3.65558)"/><path d="M0-7.14c-.098-1.546-.029-4.108 1.119-6.523.533-1.121 1.032-2.246 1.813-3.227.846-1.066 1.623-1.197 2.646-.314 2.693 2.325 4.296 5.304 5.21 8.707.551 2.051.791 4.147 1.145 6.23.534 3.135.091 6.058-1.021 8.943a11.287 11.287 0 0 1-2.089 3.409c-.678.767-1.384.862-2.282.225C4.378 8.773 2.89 6.693 1.88 4.265.502.952-.017-2.526 0-7.14" style="fill:#e86db0;fill-rule:nonzero" transform="translate(233.208 240.681) scale(3.65558)"/><path d="M0-6.133c.123-1.569 1.072-2.362 2.53-2.173 1.213.157 2.34.577 3.234 1.43.464.442.593.186.812-.192a4.935 4.935 0 0 1 2.339-2.098c2.151-.949 3.815.175 3.752 2.542-.046 1.69-.72 3.208-1.262 4.762-.61 1.75-1.383 3.416-2.62 4.825-.721.821-1.652 1.019-2.469.312C3.836 1.129 1.567-1.211.298-4.322.05-4.93-.104-5.571 0-6.133" style="fill:#e86db0;fill-rule:nonzero" transform="translate(241.187 321.015) scale(3.65558)"/><path d="M0-2.631c.044-1.676 1.555-2.434 3.115-1.414.934.61 1.478.415 2.156-.288.819-.848 1.708-.98 2.505-.498.681.413 1.084 1.543.841 2.48C8.255-.955 7.475.202 6.53 1.275c-1.129 1.281-2.066 1.407-3.49.469C1.929 1.011.98.148.368-1.058.113-1.559-.069-2.062 0-2.631" style="fill:#e86db0;fill-rule:nonzero" transform="translate(229.526 163.539) scale(3.65558)"/><path d="M0 13.566c.048.644.055 1.405.173 2.148.115.721.482 1.015 1.076.34.591-.67 1.227-1.315 1.728-2.05 2.182-3.197 3.561-6.712 4.045-10.567.203-1.609.407-3.22.048-4.829-.328-1.472-1.244-1.771-2.353-.823-.453.388-.788.844-1.106 1.344C2.813.383 2.417 1.777 1.94 3.169.793 6.516.221 9.946 0 13.566" style="fill:#e86db0;fill-rule:nonzero" transform="translate(320.266 256.397) scale(3.65558)"/><path d="M0 15.489c-.113-.6-.193-1.324-.389-2.015C-1.459 9.7-3.163 6.221-5.385 2.996A12.44 12.44 0 0 0-8.564-.21c-.536-.369-1.19-.878-1.894-.357-.618.459-.592 1.165-.544 1.882.194 2.903 1.682 5.266 3.139 7.644 1.764 2.879 3.896 5.415 6.792 7.232.229.144.452.386.745.226.31-.168.33-.496.326-.928" style="fill:#e86db0;fill-rule:nonzero" transform="translate(213.286 270.753) scale(3.65558)"/><path d="M0-32.071c0 .172-.006.345.001.516.078 1.941 2.037 4.292 4.588 3.195 1.342-.576 2.33-2.151 2.249-3.632-.116-2.101-1.025-3.515-3.066-4.131-.539-.163-1.105-.199-1.588.129C.805-35.059.021-33.774 0-32.071m-120.929 17.258c.034-1.873-1.249-3.807-2.825-4.258-2.474-.709-4.695 1.681-4.196 4.514.374 2.125 2.144 3.387 4.469 3.188 1.273-.11 2.522-1.795 2.552-3.444m59.06 25.705c-1.263-2.067-2.441-3.994-3.6-5.921-1.849-3.074-3.052-6.414-4.574-9.617a37.967 37.967 0 0 1-1.984-5.148c-.55-1.784-1.56-3.399-1.814-5.291-.19-1.423-.784-2.555-1.978-3.583-2.712-2.336-5.581-3.84-9.284-3.467-2.542.256-3.503 1.197-3.716 3.687-.233 2.726.396 5.459 1.504 8.002 1.158 2.658 2.51 5.236 4.171 7.605 2.653 3.782 5.067 7.757 8.723 10.756 1.661 1.363 3.382 2.586 5.343 3.417.569.242 1.081.804 1.764.676 1.778-.335 3.547-.723 5.445-1.116m11.468-1.418c.45 0 .788-.003 1.126.001 1.278.018 2.507-.48 3.79-.382.561.043.944-.194 1.398-.492 1.267-.832 2.186-1.994 3.106-3.141 1.308-1.629 2.715-3.218 3.619-5.115 1.994-4.184 3.935-8.391 4.839-12.995.469-2.386 1.283-4.7 1.385-7.164.077-1.867-.169-3.689-.508-5.515-.424-2.283-2.249-3.594-4.552-3.294-3.685.48-6.351 2.486-8.316 5.509-.529.813-1.176 1.661-1.184 2.685-.013 1.795.361 3.576.061 5.39-.21 1.266-.077 2.575-.297 3.853-.433 2.515-.871 5.032-1.27 7.551-.701 4.431-1.477 8.828-3.197 13.109m-21.831 3.791.149-.226c-.123-.061-.246-.119-.367-.183-2.342-1.24-4.236-3.044-6.03-4.942-1.389-1.469-3.041-2.679-4.203-4.372-1.082-1.576-2.245-3.097-3.315-4.681-.31-.461-.41-.424-.811-.097-1.098.896-2.319 1.561-3.753 1.825-3.396.624-6.617-.11-9.764-1.264-2.028-.744-3.954-1.765-5.948-2.584-2.897-1.192-5.566-2.751-8.196-4.4-1.88-1.18-4.003-1.964-5.674-3.483-.302-.275-.609-.238-.92.036-.315.277-.203.536-.04.824.12.209.201.44.328.644 1.61 2.584 2.893 5.351 4.266 8.054 1.525 3.003 3.436 5.746 5.145 8.621 1.16 1.952 2.544 3.767 3.758 5.688 1.289 2.039 2.491 4.134 3.741 6.198.78 1.287 1.678 2.515 2.33 3.863.37.766.619.892 1.241.381a2.9 2.9 0 0 1 .519-.321c5.799-2.973 11.948-5.047 18.148-6.969 3.104-.963 6.262-1.747 9.396-2.612m42.227-22.333c-.935 2.759-1.815 5.46-3.167 7.965-1.73 3.203-3.613 6.314-5.962 9.118-.174.207-.624.393-.377.737.176.244.573.134.882.14 2.704.051 5.41.07 8.112.182 1.748.073 3.521.379 5.237.296 2.153-.104 4.224.26 6.326.444 3.135.274 6.208.978 9.305 1.512.458.08.611.03.692-.41.439-2.358 1.468-4.54 1.993-6.886.998-4.458 2.742-8.704 3.976-13.099.454-1.619 1.261-3.169 1.501-4.81.329-2.246 1.058-4.38 1.488-6.591.38-1.956.935-3.878 1.424-5.812.102-.404.138-.729-.34-.931-.333-.141-.62-.174-.802.164-.639 1.184-1.767 1.882-2.69 2.788-2.836 2.782-5.502 5.734-8.458 8.397-2.972 2.676-6.102 5.12-9.849 6.63-3.048 1.228-6.133 1.857-9.291.166m-17.804-7.443c.054-1.456-.329-2.87-.393-4.31-.217-4.944-1.082-9.783-2.667-14.463-1.701-5.025-3.832-9.832-7.292-13.974-1.922-2.301-3.849-4.568-6.143-6.51-.488-.414-.756-.382-1.154.128-.835 1.066-1.325 2.318-2.005 3.465a34.079 34.079 0 0 0-3.601 8.509c-.888 3.301-1.686 6.629-1.789 10.1-.092 3.153-.266 6.307-.008 9.449.259 3.174.947 6.293 1.553 9.419.687 3.543 2.486 6.654 3.863 9.924.967 2.301 2.19 4.483 3.499 6.627 1.709 2.8 3.402 5.607 5.205 8.347.161.247.388.26.636.183 1.263-.398 2.579-.364 3.877-.477.267-.024.624.002.656-.359.081-.921.642-1.655.926-2.498.868-2.574 1.494-5.207 2.181-7.83 1.355-5.171 2.422-10.376 2.656-15.73m-27.195-3.798c.054-1.295-.317-2.512-.366-3.751a61.906 61.906 0 0 1 .089-6.153c.076-1.259.1-2.523.214-3.778.171-1.898.343-3.786.8-5.66 1.004-4.127 2.765-7.963 4.28-11.898.823-2.14 2.162-3.939 3.496-5.746.805-1.09 1.752-1.227 2.759-.368 1.716 1.465 3.62 2.708 4.999 4.577 1.825 2.473 3.63 4.96 5.465 7.424 1.763 2.367 2.964 5.023 3.979 7.725 1.016 2.703 1.917 5.475 2.493 8.329.31 1.537.733 3.054.688 4.645-.007.216.138.435.213.655.484-.121.578-.541.799-.828 2.075-2.692 4.711-4.54 8.08-5.146 3.106-.558 5.557.646 6.851 3.732.982 2.34 1.325 4.754 1.291 7.304-.03 2.351-.408 4.633-.741 6.933-.17 1.175.126 1.581 1.275 1.973 2.303.787 4.457.149 6.516-.736 2.815-1.211 5.362-2.937 7.808-4.763 2.81-2.098 5.252-4.618 7.724-7.105 1.705-1.715 2.874-3.853 4.631-5.51.392-.37.425-.784.169-1.378-1.135-2.637.538-6.349 3.111-7.311 4.34-1.622 6.456 1.495 6.665 4.709.165 2.551-.901 4.236-3.049 5.407-.283.155-.554.283-.868.277-.963-.016-1.366.385-1.579 1.399-.783 3.714-1.715 7.395-2.592 11.089C-.862-9.802-1.983-5.359-3.297-.965-3.906 1.073-4.591 3.1-5.006 5.18c-.551 2.764-1.723 5.349-2.188 8.126-.119.713-.472.932-1.197.932-1.732.002-3.416-.394-5.132-.501-4.338-.271-8.672-.73-13.012-.801-4.595-.076-9.194-.357-13.792-.093-2.945.169-5.929.132-8.823.617-3.974.666-7.989 1.05-11.939 1.831-2.07.41-4.131.869-6.19 1.334-2.202.497-4.413.943-6.574 1.604-2.386.73-4.766 1.481-7.159 2.188-2.631.777-5.229 1.65-7.827 2.532-3.687 1.252-7.325 2.695-11.196 3.335-1.013.167-2.463-.507-2.984-1.379-1.957-3.274-3.962-6.522-5.844-9.838-.847-1.494-1.614-3.045-2.567-4.468-2.235-3.333-4.082-6.887-6.04-10.377-1.273-2.268-2.346-4.648-3.542-6.961-.488-.943-1.126-1.807-1.486-2.819-.219-.614-.714-.418-1.135-.358-2.123.304-3.814-.501-4.892-2.256-1.214-1.974-1.446-4.137-.358-6.295.686-1.361 3.577-2.501 5.07-2.04 1.412.436 2.565 1.289 3.637 2.266 1.214 1.106 1.163 2.589 1.051 4.024-.045.59.113.933.544 1.193 2.375 1.436 4.422 3.343 6.862 4.69 2.09 1.153 4.072 2.452 6.392 3.213 2.061.675 3.961 1.824 6.077 2.431 2.178.624 4.317 1.407 6.623 1.411 1.888.005 3.661-.322 5.083-1.736.335-.333.347-.571.171-.975-.751-1.728-1.588-3.433-2.164-5.22-1.11-3.446-1.813-6.947-.762-10.582.756-2.615 2.865-4.327 5.63-4.243 3.499.107 6.684 1.116 9.269 3.616.064.062.192.056.396.11" style="fill:#73493c;fill-rule:nonzero" transform="translate(477.404 322.07) scale(3.65558)"/><path d="M0 25.331c.008-1.568-.287-2.994-1.03-4.38-.443-.825-.588-.966-1.382-.407-.693.489-.839.844-.361 1.535.811 1.173 1.752 2.229 2.773 3.252m1.565-.072c.526-1.224 1.289-2.116 1.667-3.257.574-1.729.613-1.715-1.075-2.235-.032-.01-.062-.029-.093-.046-.239-.133-.418-.047-.464.197-.323 1.699-.87 3.396-.035 5.341M-2.063 4.422c.579.303.688-.143.83-.618.177-.593.403-1.172.627-1.75.117-.305.205-.564-.085-.841-.473-.451-.905-.944-1.37-1.405-.36-.357-.682-.371-1.018.089-1.164 1.597-1.187 1.999-.111 3.678.129.203.278.396.389.609.149.289.343.42.738.238m-3.553 5.037c0 .378-.005.757.002 1.135.004.219.066.377.331.433.904.192 1.717-.395 1.585-1.292-.179-1.225.039-2.406.284-3.568.186-.882.162-1.594-.507-2.234-.211-.204-.246-.656-.62-.609-.42.052-.418.499-.51.812-.505 1.739-.846 3.499-.565 5.323m7.747.608c1.188-.042 1.229-.088.946-1.195-.161-.632-.352-1.256-.539-1.88-.417-1.389-1.067-2.669-1.84-3.888-.128-.2-.263-.531-.623-.388-.246.097-.805 1.998-.657 2.27C.18 6.381.662 7.89 1.179 9.38c.196.564.429.828.952.687m1.77 9.247c.414-.982.171-1.964.282-2.915.186-1.597-.315-3.128-.544-4.68-.149-1.014-1.095-.593-1.704-.614-.77-.026-.388.61-.331.912.286 1.492.422 3.011.244 4.495-.193 1.602.416 2.439 1.893 2.801.033.008.069.001.16.001m-5.965-.643c-.472-2.046-.926-4.051-1.403-6.05-.076-.322.178-1.027-.558-.775-.585.201-1.617-.021-1.492 1.125.252 2.323.683 4.609 1.559 6.791.075.186.102.423.347.464.216.036 1.553-1.368 1.547-1.555m2.339 2.665c.387-1.554.921-3.016.782-4.631-.159-1.836-.168-3.677-.361-5.521C.489 9.198-.486 7.555-1.061 5.742c-.126-.398-.472-.441-.85-.399-.287.031-.549.044-.624.401-.362 1.739-.69 3.499-.351 5.265.454 2.365 1.045 4.704 1.54 7.062.258 1.229 1.136 2.121 1.621 3.265m-7.083-12.24c-.098-1.546-.029-4.108 1.119-6.524.533-1.12 1.032-2.245 1.813-3.227.846-1.065 1.623-1.197 2.646-.313 2.693 2.324 4.296 5.304 5.209 8.707.552 2.05.792 4.147 1.146 6.229.534 3.136.091 6.059-1.021 8.944a11.27 11.27 0 0 1-2.089 3.408c-.678.768-1.384.863-2.282.225-2.163-1.536-3.651-3.616-4.661-6.044-1.378-3.314-1.897-6.791-1.88-11.405" style="fill:#73493c;fill-rule:nonzero" transform="translate(258.096 181.33) scale(3.65558)"/><path d="M0-6.695c-.045-.794.074-1.585-.685-1.934-.797-.366-1.576-.233-2.317.326-.79.594-1.425 1.26-1.795 2.197-.35.891-.732.94-1.273.166-.752-1.074-1.903-1.437-3.055-1.707-1.155-.269-1.855.528-1.666 1.723.075.476.163.942.386 1.383C-9.083-1.932-7.212.216-5.011 2.123c.7.608 1.046.49 1.551-.147C-2.05.198-1.332-1.903-.601-3.999c.316-.908.605-1.83.601-2.696m-11.718.281c.123-1.569 1.072-2.363 2.53-2.173 1.213.157 2.34.577 3.234 1.43.464.442.594.186.812-.192a4.935 4.935 0 0 1 2.339-2.098c2.152-.949 3.815.175 3.752 2.542-.046 1.69-.72 3.208-1.261 4.762-.61 1.75-1.384 3.416-2.621 4.825-.721.821-1.652 1.019-2.469.311-2.48-2.145-4.748-4.485-6.018-7.597-.248-.607-.402-1.248-.298-1.81" style="fill:#73493c;fill-rule:nonzero" transform="translate(284.022 322.043) scale(3.65558)"/><path d="M0-2.671C.14-1.101 1.174-.165 2.333.584c1.46.945 1.504.883 2.758-.353.861-.848 1.387-1.874 1.522-3.077.052-.459-.062-.937-.46-1.197-.45-.294-.884.002-1.214.296a4.689 4.689 0 0 0-.928 1.095c-.413.705-.772.905-1.378.171-.413-.502-.956-.872-1.648-.989-.702-.118-.948.212-.985.799m-1.011.02C-.967-4.327.544-5.085 2.104-4.066c.934.611 1.478.416 2.156-.287.82-.849 1.709-.98 2.505-.498.681.412 1.084 1.543.841 2.479C7.245-.975 6.464.182 5.519 1.254c-1.129 1.282-2.066 1.408-3.49.47C.918.991-.03.127-.643-1.078c-.254-.501-.437-1.004-.368-1.573" style="fill:#73493c;fill-rule:nonzero" transform="translate(233.221 163.614) scale(3.65558)"/><path d="M0-.031c1.23.47 1.9 1.339 2.381 2.391.104.227.372.588.577.128C3.369 1.564 4.142.984 4.813.301c.136-.138.507-.304.145-.549-.967-.658-1.57-1.649-2.281-2.597-.386.626-.677 1.169-1.038 1.662C1.272-.682.645-.491 0-.031m2.622 5.403a.495.495 0 0 1-.469-.338 2.043 2.043 0 0 1-.112-.501C1.849 2.705.898 1.425-.75.637c-.365-.174-.825-.315-.785-.835.04-.508.536-.628.896-.747 1.776-.585 2.473-1.924 2.67-3.648.046-.399.166-.772.644-.792.447-.018.651.275.762.691.475 1.78 1.509 3.125 3.168 3.96.291.147.581.303.58.653-.002.427-.318.722-.676.827-1.926.565-2.722 2.059-3.237 3.809-.161.547-.383.809-.65.817" style="fill:#73493c;fill-rule:nonzero" transform="translate(404.094 320.824) scale(3.65558)"/><path d="M0 1.732c1.203.336 2.165.836 2.895 1.711.34.407.542.312.673-.172.305-1.125.777-2.172 1.748-3.243C3.793.027 2.808-.745 1.844-1.65 1.352-.407.963.725 0 1.732m.712-4.68c-.168-.695-.13-1.239.528-1.362.577-.108.693.444.852.858.535 1.396 1.498 2.277 3.005 2.509.306.048.614.095.915.166.914.215 1.022.551.387 1.249-.856.943-1.775 1.852-1.932 3.204-.059.509-.045 1.031-.014 1.544.02.322.097.678-.262.802-.371.128-.71.009-.967-.36-.505-.728-.873-1.57-1.658-2.076-.673-.435-1.36-.806-2.202-.784-.504.013-1.006-.138-1.191-.637-.195-.525.373-.617.642-.897C-.025.059.501-1.442.712-2.948" style="fill:#73493c;fill-rule:nonzero" transform="translate(115.763 355.348) scale(3.65558)"/><path d="M0 13.189c.048.644.055 1.405.173 2.148.115.721.482 1.015 1.076.34.591-.67 1.227-1.315 1.728-2.05C5.159 10.43 6.538 6.915 7.022 3.06c.203-1.609.407-3.22.048-4.829-.328-1.472-1.244-1.771-2.353-.823-.453.388-.788.844-1.106 1.344C2.813.006 2.417 1.4 1.94 2.792.793 6.139.221 9.569 0 13.189m-.761-.666c.203-3.452.878-6.799 1.951-10.1.633-1.947 1.243-3.836 2.634-5.384.63-.702 1.337-1.222 2.336-1.015 1.043.217 1.519.978 1.73 1.953.37 1.712.126 3.406-.062 5.119-.538 4.92-2.686 9.095-5.815 12.821-.45.535-.888 1.455-1.78 1.128-.788-.29-.812-1.203-.926-1.949a10.894 10.894 0 0 1-.133-1.335c-.011-.412.041-.825.065-1.238" style="fill:#73493c;fill-rule:nonzero" transform="translate(320.266 257.775) scale(3.65558)"/><path d="M0 2.722c.551.006 1.354-.949 1.359-1.55C1.365.629 1.036.339.56.282-.181.193-.96.871-.915 1.532c.042.606.451.951.915 1.19m.129.751c-.969.015-1.788-.964-1.826-2.184C-1.728.296-.594-.748.528-.758 1.34-.766 2.291.137 2.314.94 2.35 2.146 1.22 3.456.129 3.473" style="fill:#73493c;fill-rule:nonzero" transform="translate(313.636 329.533) scale(3.65558)"/><path d="M0 15.138c-.113-.6-.193-1.324-.389-2.015-1.07-3.774-2.774-7.253-4.996-10.478A12.44 12.44 0 0 0-8.564-.561c-.536-.369-1.19-.878-1.894-.357-.618.459-.592 1.165-.544 1.882.194 2.903 1.682 5.266 3.139 7.644 1.764 2.879 3.896 5.415 6.792 7.232.229.144.452.386.745.226.31-.168.33-.496.326-.928m.798.216c-.014.243-.014.451-.038.656-.132 1.089-.535 1.332-1.516.86-1.731-.831-3.219-2.028-4.484-3.436-2.329-2.592-4.316-5.441-5.661-8.682-.579-1.397-1.012-2.848-1.004-4.391.004-.938.352-1.665 1.205-2.119.84-.446 1.587-.199 2.323.267 2 1.268 3.374 3.101 4.601 5.068C-1.65 6.985-.01 10.593.724 14.571c.049.268.052.546.074.783" style="fill:#73493c;fill-rule:nonzero" transform="translate(213.286 272.036) scale(3.65558)"/><path d="M0-2.013c-.641-.094-1.075.102-1.065.778.012.777.448 1.369 1.2 1.434.522.045 1.079-.316 1.095-.978C1.251-1.596.854-2.077 0-2.013m-.162-1.072c1.314.043 2.303.995 2.268 2.187-.033 1.14-.989 2.002-2.204 1.985-.792-.012-1.899-1.383-1.863-2.309.04-1.064.842-1.895 1.799-1.863" style="fill:#73493c;fill-rule:nonzero" transform="translate(224.103 350.367) scale(3.65558)"/><path d="M0 9.741c.256-1.888.89-3.677 1.435-5.488.423-1.405.66-2.871 1.355-4.186.149-.284.219-.8.646-.653.45.156.188.571.069.886C2.397 3.255 1.579 6.295.837 9.358c-.04.167-.095.331-.158.491-.094.24-.111.625-.481.529-.27-.07-.152-.413-.198-.637" style="fill:#73493c;fill-rule:nonzero" transform="translate(324.675 257.571) scale(3.65558)"/><path d="M0-9.839c.239.027.383.168.522.326 2.246 2.535 3.85 5.474 5.331 8.488.132.268.412.707-.022.885-.341.14-.448-.316-.594-.577-1.29-2.305-2.523-4.645-4.082-6.786C.754-8.052.28-8.547-.124-9.095c-.184-.25-.297-.57.124-.744" style="fill:#73493c;fill-rule:nonzero" transform="translate(182.808 311.735) scale(3.65558)"/><path d="M-4.541-3.055C-2.67-3.157-.69-1.945-.182-.386.615 2.06-1.693 4.368-4.541 3.971c-2.137-.297-3.464-2.02-3.348-4.35.063-1.277 1.701-2.586 3.348-2.676" style="fill:#e86db0;fill-rule:nonzero" transform="scale(-3.65559 3.65559) rotate(-87.92 32.48 37.776)"/><path d="M0-.557c0 .172-.006.345.001.516C.079 1.9 2.038 4.251 4.589 3.154c1.342-.576 2.33-2.151 2.249-3.632-.116-2.101-1.025-3.515-3.066-4.131-.539-.163-1.105-.199-1.588.129C.805-3.545.021-2.26 0-.557" style="fill:#e86db0;fill-rule:nonzero" transform="translate(477.404 206.868) scale(3.65558)"/><path d="M0-.165c1.23.47 1.9 1.339 2.381 2.391.104.227.372.588.577.128C3.369 1.43 4.142.85 4.813.167c.136-.138.507-.304.145-.549-.967-.658-1.57-1.649-2.281-2.597C2.291-2.353 2-1.81 1.639-1.317 1.272-.816.645-.625 0-.165" style="fill:#e86db0;fill-rule:nonzero" transform="translate(404.094 321.314) scale(3.65558)"/><path d="M0 1.264c1.203.336 2.165.836 2.895 1.711.34.407.542.312.673-.172.305-1.125.777-2.172 1.748-3.243-1.523-.001-2.508-.773-3.472-1.678C1.352-.875.963.257 0 1.264" style="fill:#e86db0;fill-rule:nonzero" transform="translate(115.763 357.059) scale(3.65558)"/><path d="M.287-.013c.539.117 1.108 1.228.978 1.814-.115.531-.501.74-.978.689-.742-.079-1.349-.914-1.158-1.548C-.694.361-.218.116.287-.013" style="fill:#e86db0;fill-rule:nonzero" transform="matrix(3.56295 .81773 .81773 -3.56295 312.623 339.201)"/><path d="M.11-2.166c.634-.133 1.079.036 1.11.711C1.256-.678.857-.061.11.05-.408.126-.986-.2-1.043-.86c-.07-.814.297-1.318 1.153-1.306" style="fill:#e86db0;fill-rule:nonzero" transform="scale(-3.65558 3.65558) rotate(3.492 -1605 -961.383)"/></svg>