<?xml version="1.0" encoding="UTF-8"?>
<svg width="578px" height="188px" viewBox="0 0 578 188" version="1.1" xmlns="http://www.w3.org/2000/svg" xmlns:xlink="http://www.w3.org/1999/xlink">
    <title>logo copy</title>
    <defs>
        <linearGradient x1="50%" y1="0%" x2="50%" y2="100%" id="linearGradient-1">
            <stop stop-color="#FFFFFF" stop-opacity="0.5" offset="0%"></stop>
            <stop stop-color="#000000" stop-opacity="0" offset="100%"></stop>
        </linearGradient>
        <path d="M322.993103,27.304 C321.793103,35.704 316.593103,47.3706667 307.393103,62.304 L306.250246,63.9693061 C303.850246,67.4305306 300.764532,71.6754286 296.993103,76.704 C293.793103,80.704 291.126437,85.0373333 288.993103,89.704 C287.25977,94.504 286.45977,99.3706667 286.593103,104.304 C286.726437,106.037333 287.393103,107.504 288.593103,108.704 C290.326437,110.037333 292.593103,110.404 295.393103,109.804 C298.193103,109.204 300.526437,108.504 302.393103,107.704 C312.793103,103.570667 322.526437,98.0373333 331.593103,91.104 C332.290138,90.5231376 333.088394,90.0941057 333.987869,89.8169043 C334.533943,89.2081933 335.135357,88.904 335.793103,88.904 C337.793103,88.904 337.993103,91.0373333 336.393103,95.304 C335.45977,98.3706667 334.85977,101.037333 334.593103,103.304 C334.326437,105.570667 334.526437,106.704 335.193103,106.704 C335.85977,106.704 337.426437,105.404 339.893103,102.804 C342.35977,100.204 345.05977,97.104 347.993103,93.504 C349.193103,91.3706667 350.726437,89.5706667 352.593103,88.104 C354.993103,87.304 356.05977,88.1706667 355.793103,90.704 L355.734831,91.1626889 C355.420991,93.4762511 354.640415,97.1900215 353.393103,102.304 L352.761159,105.113028 C352.562085,105.985713 352.374585,106.794741 352.198659,107.540111 L351.67399,109.753584 C351.486732,110.562633 351.393103,111.012772 351.393103,111.104 C351.518594,111.104 352.08699,110.749675 353.098294,110.041024 L353.293103,109.904 C354.426437,109.104 355.793103,108.037333 357.393103,106.704 C361.001992,103.592889 365.075474,100.36563 369.613548,97.0222222 L371.463187,95.6649418 C376.598921,91.9120332 380.208893,89.6250526 382.293103,88.804 C382.8621,88.5798498 383.357516,88.4515781 383.77935,88.4191849 C384.606617,87.582409 385.411547,87.6107926 386.193103,88.504 C386.593103,88.904 386.726437,89.5706667 386.593103,90.504 L386.545103,90.808 C386.386437,91.7373333 386.035103,93.2446667 385.491103,95.33 L383.793103,101.704 L388.193103,97.704 C394.05977,92.2373333 398.65977,89.504 401.993103,89.504 C406.65977,89.504 407.993103,93.4373333 405.993103,101.304 L405.889743,101.8976 C405.131983,106.5312 406.033103,108.4 408.593103,107.504 C413.393103,106.037333 419.65977,101.770667 427.393103,94.704 L427.885465,94.2355972 C431.601668,90.7589769 433.970881,89.9151111 434.993103,91.704 C435.526437,92.3706667 435.45977,93.204 434.793103,94.204 C434.126437,95.204 432.526437,96.8373333 429.993103,99.104 L429.139414,99.8590023 C416.139746,111.267724 407.290976,114.94939 402.593103,110.904 C401.126437,109.304 400.493103,107.204 400.693103,104.604 C400.893103,102.004 401.193103,99.704 401.593103,97.704 C401.726437,96.7706667 401.793103,96.0373333 401.793103,95.504 C401.793103,94.9706667 401.65977,94.704 401.393103,94.704 C399.526437,94.704 395.193103,97.904 388.393103,104.304 L387.74102,104.953306 C385.40352,107.270435 383.654215,108.887333 382.493103,109.804 C381.226437,110.804 380.326437,111.237333 379.793103,111.104 C378.326437,111.104 377.593103,110.370667 377.593103,108.904 C377.593103,107.437333 378.25977,104.370667 379.593103,99.704 C379.960893,98.2662785 380.314009,96.964804 380.652453,95.7995767 L380.796,95.309 L380.065326,95.8053889 C369.928289,102.726685 360.770881,109.892889 352.593103,117.304 C350.05977,118.770667 348.126437,122.437333 346.793103,128.304 C343.726437,138.437333 340.593103,146.637333 337.393103,152.904 C334.726437,157.437333 332.05977,160.637333 329.393103,162.504 C326.326437,163.837333 324.026437,163.604 322.493103,161.804 C320.95977,160.004 320.393103,157.370667 320.793103,153.904 C321.85977,147.637333 324.193103,141.970667 327.793103,136.904 C331.526437,131.570667 335.726437,126.570667 340.393103,121.904 L340.980975,121.278078 C343.540785,118.499957 344.944828,116.241931 345.193103,114.504 L345.380758,113.768198 C345.907507,111.740214 346.644955,109.185481 347.593103,106.104 L349.193103,100.504 L343.793103,105.704 C338.993103,110.904 335.393103,112.770667 332.993103,111.304 C329.960281,109.321001 329.325609,104.735753 331.089087,97.5482567 C325.764334,101.360058 320.21243,104.795322 314.434655,107.854271 L313.193103,108.504 C307.193103,111.704 300.926437,113.837333 294.393103,114.904 C291.05977,115.437333 288.05977,114.637333 285.393103,112.504 C282.726437,109.837333 281.526437,106.237333 281.793103,101.704 C281.884882,100.143763 282.016145,98.6545975 282.186892,97.236504 C278.054987,99.2199295 273.723431,98.9750879 269.193103,96.504 C265.193103,93.704 261.65977,93.6373333 258.593103,96.304 C254.193103,100.304 250.25977,105.037333 246.793103,110.504 C245.993103,112.237333 244.993103,113.704 243.793103,114.904 C242.45977,115.837333 241.526437,115.637333 240.993103,114.304 C240.193103,111.504 240.393103,108.704 241.593103,105.904 C242.269199,103.537667 242.979577,101.171333 243.724238,98.805 C240.715517,100.97094 237.403987,103.13747 233.793103,105.304 C229.338558,107.976727 225.369963,109.920529 221.887318,111.135405 L221.393103,111.304 C214.193103,113.837333 208.993103,113.904 205.793103,111.504 C202.303527,107.815019 201.870662,103.268668 204.494509,97.8649458 L203.615722,98.6173037 C202.170913,99.8450858 200.36307,101.340902 198.193103,103.104 C191.276791,108.845844 185.765399,111.905569 181.658925,112.283176 L181.393103,112.304 C177.926437,112.570667 175.85977,110.970667 175.193103,107.504 L175.207616,106.197878 L175.305175,101.847621 C175.344041,99.6185405 175.240017,98.504 174.993103,98.504 C174.593103,98.504 173.426437,99.204 171.493103,100.604 C169.55977,102.004 167.65977,103.570667 165.793103,105.304 C163.25977,107.837333 161.45977,108.904 160.393103,108.504 C159.326437,108.370667 158.65977,107.704 158.393103,106.504 C158.393103,103.037333 158.993103,99.5706667 160.193103,96.104 C160.326437,95.704 160.25977,95.304 159.993103,94.904 C158.793103,94.7706667 157.65977,95.1706667 156.593103,96.104 C154.326437,97.704 152.193103,99.504 150.193103,101.504 C147.926437,103.504 145.85977,105.704 143.993103,108.104 L143.037548,109.459556 C142.385696,110.378074 141.704215,111.326222 140.993103,112.304 C139.926437,113.770667 138.526437,114.637333 136.793103,114.904 C136.393103,114.904 136.05977,114.770667 135.793103,114.504 C135.126437,113.437333 134.993103,112.304 135.393103,111.104 C135.526437,109.237333 135.85977,107.370667 136.393103,105.504 C136.65977,104.437333 136.993103,103.370667 137.393103,102.304 C137.715251,101.069101 138.02794,99.9206839 138.331169,98.8587498 L136.768106,100.169117 C136.3488,100.517789 135.908097,100.882265 135.446012,101.262529 L133.193103,103.104 C126.276791,108.845844 120.765399,111.905569 116.658925,112.283176 L116.393103,112.304 C112.926437,112.570667 110.85977,110.970667 110.193103,107.504 L110.207616,106.197878 L110.305175,101.847621 C110.344041,99.6185405 110.240017,98.504 109.993103,98.504 C109.593103,98.504 108.426437,99.204 106.493103,100.604 C104.55977,102.004 102.65977,103.570667 100.793103,105.304 C98.2597701,107.837333 96.4597701,108.904 95.3931034,108.504 C94.3264368,108.370667 93.6597701,107.704 93.3931034,106.504 C93.3931034,103.037333 93.9931034,99.5706667 95.1931034,96.104 C95.3264368,95.704 95.2597701,95.304 94.9931034,94.904 C93.7931034,94.7706667 92.6597701,95.1706667 91.5931034,96.104 C89.3264368,97.704 87.1931034,99.504 85.1931034,101.504 C82.9264368,103.504 80.8597701,105.704 78.9931034,108.104 L78.0375479,109.459556 C77.385696,110.378074 76.7042146,111.326222 75.9931034,112.304 C74.9264368,113.770667 73.5264368,114.637333 71.7931034,114.904 C71.3931034,114.904 71.0597701,114.770667 70.7931034,114.504 C70.1264368,113.437333 69.9931034,112.304 70.3931034,111.104 C70.5264368,109.237333 70.8597701,107.370667 71.3931034,105.504 C71.6597701,104.437333 71.9931034,103.370667 72.3931034,102.304 L72.7993892,100.773878 C74.2256749,95.5006259 75.456913,92.0106667 76.4931034,90.304 C77.6264368,88.4373333 78.7931034,88.304 79.9931034,89.904 C80.2597701,90.1706667 80.3264368,90.7373333 80.1931034,91.604 L80.1306034,91.9555625 C79.9556034,92.8378542 79.5764368,94.154 78.9931034,95.904 L78.5571659,97.4836875 C78.4165409,97.9868125 78.2806034,98.4665 78.1493534,98.92275 L77.6619923,100.604 C77.4827331,101.239556 77.3931034,101.606222 77.3931034,101.704 C77.3931034,101.970667 77.7597701,101.804 78.4931034,101.204 L78.8792146,100.884556 C79.5551405,100.319741 80.3931034,99.5928889 81.3931034,98.704 C83.9264368,96.0373333 86.7264368,93.704 89.7931034,91.704 C92.3264368,89.8373333 94.9931034,89.2373333 97.7931034,89.904 C99.6597701,91.104 100.393103,92.8373333 99.9931034,95.104 L99.9931034,99.104 L101.993103,97.504 C107.614018,93.4517124 111.632986,92.4751649 114.050005,94.5743576 L114.193103,94.704 C114.85977,95.2373333 115.226437,96.204 115.293103,97.604 L115.305529,97.9489704 C115.343399,99.416426 115.239257,101.934769 114.993103,105.504 C114.993103,107.104 115.95977,107.537333 117.893103,106.804 L118.591541,106.533687 C120.159249,105.913896 121.293103,105.370667 121.993103,104.904 C125.993103,102.504 129.726437,99.704 133.193103,96.504 C135.45977,94.3706667 137.85977,92.4373333 140.393103,90.704 L141.193103,90.304 L141.457894,90.3649676 L141.493103,90.304 C142.626437,88.4373333 143.793103,88.304 144.993103,89.904 C145.25977,90.1706667 145.326437,90.7373333 145.193103,91.604 L145.130603,91.9555625 C144.955603,92.8378542 144.576437,94.154 143.993103,95.904 L143.557166,97.4836875 C143.416541,97.9868125 143.280603,98.4665 143.149353,98.92275 L142.661992,100.604 C142.482733,101.239556 142.393103,101.606222 142.393103,101.704 C142.393103,101.970667 142.75977,101.804 143.493103,101.204 L143.879215,100.884556 C144.55514,100.319741 145.393103,99.5928889 146.393103,98.704 C148.926437,96.0373333 151.726437,93.704 154.793103,91.704 C157.326437,89.8373333 159.993103,89.2373333 162.793103,89.904 C164.65977,91.104 165.393103,92.8373333 164.993103,95.104 L164.993103,99.104 L166.993103,97.504 C172.614018,93.4517124 176.632986,92.4751649 179.050005,94.5743576 L179.193103,94.704 C179.85977,95.2373333 180.226437,96.204 180.293103,97.604 L180.305529,97.9489704 C180.343399,99.416426 180.239257,101.934769 179.993103,105.504 C179.993103,107.104 180.95977,107.537333 182.893103,106.804 L183.591541,106.533687 C185.159249,105.913896 186.293103,105.370667 186.993103,104.904 C190.993103,102.504 194.726437,99.704 198.193103,96.504 C200.45977,94.3706667 202.85977,92.4373333 205.393103,90.704 L206.193103,90.304 C207.408431,90.5644274 208.228128,90.9944109 208.652195,91.5939505 C210.116521,90.0689559 212.230109,88.7053021 214.993103,87.504 C218.05977,86.1706667 220.193103,87.104 221.393103,90.304 C221.65977,92.8373333 220.85977,95.104 218.993103,97.104 C216.85977,99.6373333 214.193103,101.170667 210.993103,101.704 C208.726437,101.704 207.65977,102.370667 207.793103,103.704 C207.65977,106.237333 208.993103,107.837333 211.793103,108.504 C218.259234,108.504 227.923895,104.051145 240.787086,95.1454339 L241.993103,94.304 C243.583102,93.1420782 244.969749,92.1905192 246.153046,91.4493232 L246.345103,90.944 C246.537103,90.464 246.753103,89.984 246.993103,89.504 C247.393103,88.704 248.05977,88.304 248.993103,88.304 C249.759567,88.304 250.259261,88.699851 250.492186,89.4915529 C251.359505,89.4635807 251.793103,90.0010085 251.793103,91.104 C251.793103,91.6581268 251.298335,92.4461442 250.308797,93.4680523 C250.093086,94.4929776 249.775552,95.6696171 249.355451,96.9985221 L249.193103,97.504 C248.926437,98.304 250.05977,97.504 252.593103,95.104 C254.85977,92.704 257.526437,90.8373333 260.593103,89.504 C262.45977,88.9706667 264.326437,88.9706667 266.193103,89.504 C269.25977,90.9706667 272.326437,92.304 275.393103,93.504 C277.793103,93.904 279.926437,93.304 281.793103,91.704 C282.337501,91.3888227 282.848033,91.1275212 283.324701,90.9200955 C283.41045,90.5741018 283.500123,90.2360735 283.593103,89.904 C287.064532,77.4325714 291.806751,64.620199 297.819762,51.4668827 L298.493103,50.004 C304.826437,36.3373333 310.126437,27.304 314.393103,22.904 C319.45977,19.4373333 322.326437,20.904 322.993103,27.304 Z M338.193103,131.304 C336.326437,133.437333 334.293103,136.204 332.093103,139.604 C329.893103,143.004 327.993103,146.504 326.393103,150.104 C325.45977,152.370667 325.126437,154.704 325.393103,157.104 C325.65977,158.037333 326.25977,158.104 327.193103,157.304 C328.126437,156.504 328.793103,155.837333 329.193103,155.304 C329.61977,154.877333 330.046437,154.408 330.473103,153.896 L330.793103,153.504 C331.593103,152.437333 332.25977,151.370667 332.793103,150.304 C334.793103,146.704 336.45977,142.970667 337.793103,139.104 C338.85977,136.704 339.793103,134.304 340.593103,131.904 C341.25977,130.704 341.526437,129.504 341.393103,128.304 C341.126437,128.170667 340.05977,129.170667 338.193103,131.304 Z M108.193103,2.304 C111.126437,3.904 112.193103,5.43733333 111.393103,6.904 C110.85977,8.37066667 109.45977,8.504 107.193103,7.304 C101.326437,4.63733333 95.1264368,3.83733333 88.5931034,4.904 C82.8597701,5.43733333 77.0597701,6.03733333 71.1931034,6.704 C65.7264368,7.37066667 60.1931034,8.17066667 54.5931034,9.104 C51.7931034,9.104 49.1931034,9.63733333 46.7931034,10.704 C46.4344828,11.0626207 45.7007531,12.6001554 44.5919144,15.316604 L43.8789023,17.0939408 C42.8098687,19.7961105 41.5238727,23.1886154 40.0209141,27.2714556 L39.0931034,29.804 C37.0264368,35.4706667 34.6597701,42.104 31.9931034,49.704 L26.5931034,65.604 C25.3153257,69.3734444 24.404909,72.2244861 23.8618534,74.157125 L23.5458812,75.3123333 C23.1662516,76.729 22.948659,77.6595556 22.8931034,78.104 C22.8264368,78.6373333 22.9264368,78.904 23.1931034,78.904 L23.6523722,78.8310408 C24.3881998,78.7063243 25.617905,78.4718571 27.3414878,78.1276395 L30.9142769,77.4024694 C31.0715898,77.3701565 31.2311987,77.3373333 31.3931034,77.304 L33.5919131,76.8657361 C52.8906986,73.0583136 65.6244287,71.6044016 71.7931034,72.504 C73.9264368,73.704 73.9931034,74.9706667 71.9931034,76.304 L71.6936952,76.3655385 C70.4061212,76.6116923 68.0392573,76.8578462 64.5931034,77.104 C49.1264368,78.8373333 34.7931034,81.2373333 21.5931034,84.304 C21.2166329,84.4294902 20.751581,85.1750496 20.1979477,86.5406782 L20.0931034,86.804 C19.4931034,88.3373333 18.7264368,90.7373333 17.7931034,94.004 L17.4337284,95.2805625 C16.5733118,98.3795208 15.5597701,102.320667 14.3931034,107.104 L14.0389057,108.575531 C8.98065553,129.744323 7.29872143,143.587146 8.99310345,150.104 C10.5931034,152.904 13.4264368,154.170667 17.4931034,153.904 C21.5597701,153.637333 25.0597701,153.170667 27.9931034,152.504 C38.6597701,149.970667 49.2597701,146.970667 59.7931034,143.504 L60.8726876,143.16279 C68.4945527,140.76487 73.6405987,139.386404 76.3108256,139.027393 L76.4931034,139.004 C79.2264368,138.670667 80.5931034,139.304 80.5931034,140.904 C80.5931034,142.504 78.6597701,143.637333 74.7931034,144.304 L73.962494,144.509679 C70.572374,145.37256 65.3159105,146.970667 58.1931034,149.304 C48.4597701,152.637333 38.5264368,155.370667 28.3931034,157.504 C25.7264368,158.037333 22.7931034,158.470667 19.5931034,158.804 C16.3931034,159.137333 13.3931034,158.837333 10.5931034,157.904 C7.65977011,157.104 5.52643678,155.104 4.19310345,151.904 C2.08153882,142.269986 4.54188868,124.210588 11.574153,97.7258034 L13.9730342,88.7510588 C14.3864137,87.1824314 14.5931034,86.3667451 14.5931034,86.304 C14.5931034,86.1706667 13.8264368,86.304 12.2931034,86.704 C10.7597701,87.104 9.19310345,87.5373333 7.59310345,88.004 L6.7563847,88.2559531 C5.6391972,88.604651 4.91810345,88.8873333 4.59310345,89.104 C4.05977011,89.504 3.19310345,89.704 1.99310345,89.704 C-0.273563218,89.0373333 -0.606896552,87.704 0.993103448,85.704 C3.79310345,84.2373333 8.25977011,82.704 14.3931034,81.104 C15.3264368,81.104 16.0264368,80.6373333 16.4931034,79.704 L16.6061212,79.4673136 C17.079494,78.4353609 17.8084881,76.3809231 18.7931034,73.304 C25.0597701,54.104 31.3264368,36.2373333 37.5931034,19.704 L38.2618534,18.0665 C38.7576868,16.8415 39.1968072,15.7299259 39.5792146,14.7317778 L39.8931034,13.904 C40.4931034,12.304 40.7264368,11.4373333 40.5931034,11.304 C34.0597701,11.9706667 27.3264368,13.304 20.3931034,15.304 C17.0597701,16.3706667 13.6597701,16.5706667 10.1931034,15.904 C9.25977011,14.8373333 9.32643678,13.704 10.3931034,12.504 L11.0775969,12.2837366 C15.7163499,10.839322 24.7548521,8.91274317 38.1931034,6.504 C41.6597701,6.104 43.6597701,5.37066667 44.1931034,4.304 C45.5264368,2.43733333 46.8597701,2.23733333 48.1931034,3.704 C48.4449553,4.2077037 49.2914574,4.44381481 50.7326096,4.41233333 L50.9931034,4.404 C52.5931034,4.33733333 56.1264368,3.904 61.5931034,3.104 C70.1264368,1.904 78.7264368,1.03733333 87.3931034,0.504 C90.5931034,0.237333333 94.0931034,0.0706666667 97.8931034,0.004 C101.693103,-0.0626666667 105.126437,0.704 108.193103,2.304 Z M215.593103,92.104 C214.393103,92.104 212.593103,93.6373333 210.193103,96.704 C210.193103,97.2373333 210.726437,97.3706667 211.793103,97.104 C212.85977,96.8373333 213.85977,96.2373333 214.793103,95.304 C215.85977,94.2373333 216.45977,93.4373333 216.593103,92.904 C216.717548,92.4062222 216.435474,92.1407407 215.746881,92.1075556 L215.593103,92.104 Z M317.993103,26.504 L316.793103,27.704 C312.123734,33.2813023 306.003354,44.9149964 298.431964,62.6050822 L297.793103,64.104 L296.774922,66.6692893 C296.302194,67.872595 295.957497,68.7732837 295.740831,69.3713554 L295.693103,69.504 C295.374263,70.3967536 295.543387,70.4660668 296.200476,69.7119395 L296.497262,69.3590095 C297.075964,68.6552917 297.928894,67.5482974 299.056052,66.0380265 L300.193103,64.504 C308.993103,51.0373333 314.793103,39.1706667 317.593103,28.904 L317.993103,26.504 Z" id="path-2"></path>
        <filter x="-23.9%" y="-62.4%" width="146.9%" height="224.9%" filterUnits="objectBoundingBox" id="filter-3">
            <feMorphology radius="2" operator="dilate" in="SourceAlpha" result="shadowSpreadOuter1"></feMorphology>
            <feOffset dx="-2" dy="0" in="shadowSpreadOuter1" result="shadowOffsetOuter1"></feOffset>
            <feGaussianBlur stdDeviation="33" in="shadowOffsetOuter1" result="shadowBlurOuter1"></feGaussianBlur>
            <feComposite in="shadowBlurOuter1" in2="SourceAlpha" operator="out" result="shadowBlurOuter1"></feComposite>
            <feColorMatrix values="0 0 0 0 0   0 0 0 0 0   0 0 0 0 0  0 0 0 0.192351228 0" type="matrix" in="shadowBlurOuter1"></feColorMatrix>
        </filter>
    </defs>
    <g id="Page-1" stroke="none" stroke-width="1" fill="none" fill-rule="evenodd">
        <g id="original-with-stroke" transform="translate(-222.000000, -127.000000)">
            <g id="Emmerlyn-Copy-3" transform="translate(252.406897, 142.096000)" fill-rule="nonzero" stroke-linejoin="bevel">
                <g id="Shape">
                    <use fill="black" fill-opacity="1" filter="url(#filter-3)" xlink:href="#path-2"></use>
                    <use fill="#D51DD0" xlink:href="#path-2"></use>
                    <path stroke="#FFFFFF" stroke-width="2" d="M320.798579,20.5137518 C322.42751,21.3471582 323.599019,23.4688426 323.987722,27.2003939 C322.769889,35.9375683 317.539214,47.7445278 308.231554,62.8495347 L307.07202,64.5391206 C304.666346,68.0085271 301.573448,72.26354 297.793103,77.304 C294.6329,81.2550355 292.014116,85.5078048 289.917931,90.0872701 C288.241891,94.7445761 287.465817,99.4661349 287.592095,104.251917 C287.70887,105.703579 288.261284,106.937727 289.255585,107.951464 C290.776383,109.092329 292.763829,109.344715 295.183574,108.826198 C297.909311,108.242111 300.181868,107.563705 301.999184,106.784855 C312.339041,102.675044 321.992879,97.1864699 330.984577,90.3095374 C331.708005,89.7130844 332.525478,89.2573684 333.437968,88.9442275 C334.158474,88.227924 334.952004,87.904 335.793103,87.904 C336.605832,87.904 337.21207,88.1597436 337.651749,88.5860996 C338.070825,88.9924757 338.361329,89.5849626 338.438738,90.4106593 C338.547311,91.5687761 338.206709,93.3094052 337.339426,95.629202 C336.432287,98.6148604 335.846149,101.211735 335.586254,103.420841 C335.491849,104.223288 335.45439,104.866251 335.48858,105.348593 L335.498,105.457 L335.508338,105.454804 C336.347001,105.156646 337.439336,103.94434 338.957904,102.337282 L339.16764,102.11574 C341.604722,99.5469234 344.2707,96.4867923 347.165714,92.9355801 C348.425116,90.7190917 350.028906,88.8469769 351.975282,87.3176817 C353.970865,86.5906537 355.106766,86.7953802 355.823696,87.377886 C356.537712,87.958024 356.974815,89.0302258 356.787609,90.8086848 C356.408995,93.632439 355.623969,97.3770486 354.366751,102.532233 L353.736114,105.335431 C353.53644,106.210745 353.348373,107.022209 353.171697,107.770755 L352.889,108.962 L352.915647,108.943014 C353.969917,108.182979 355.060628,107.332354 356.286537,106.322153 L356.752783,105.935713 C360.376247,102.812698 364.465352,99.5730413 369.021935,96.2159999 L370.873183,94.8575411 C376.112118,91.0292188 379.801145,88.7108837 381.926579,87.8735916 C382.448474,87.6679966 382.919324,87.5347553 383.337696,87.4664215 C383.915172,86.979265 384.492089,86.7942661 385.03845,86.8134643 C385.659819,86.8352981 386.307636,87.1249459 386.927901,87.8250679 C387.476718,88.39324 387.776019,89.2946581 387.583053,90.6454214 C387.368967,91.9247911 387.012522,93.4595156 386.457404,95.5874173 L385.633746,98.6792861 L387.511378,96.972392 C393.66786,91.2356698 398.514904,88.504 401.993103,88.504 C403.387497,88.504 404.523332,88.8197603 405.416354,89.4051858 C406.342897,90.0125863 407.026998,90.9141048 407.440169,92.1329607 C408.146454,94.2165006 408.02921,97.3379428 406.971749,101.513054 L406.87581,102.064034 C406.546667,104.078637 406.501717,105.518197 406.898015,106.340065 C406.981268,106.51272 407.087012,106.647765 407.254724,106.694903 C407.529286,106.772072 407.866213,106.698931 408.262753,106.560142 C413.007801,105.109424 419.134111,100.895483 426.71115,93.9725357 L427.202289,93.5053426 C429.197867,91.6384202 430.844271,90.5054539 432.113995,90.0532037 C432.944739,89.7573096 433.65366,89.7286494 434.2423,89.8926739 C434.885631,90.0719381 435.422864,90.474565 435.823286,91.1426479 C436.221766,91.6688615 436.391965,92.2581682 436.339919,92.9087452 C436.295393,93.4653158 436.073154,94.0867001 435.625154,94.7587002 C434.934116,95.7952564 433.287281,97.498425 430.655586,99.8530769 L429.799032,100.610604 C423.192311,106.40877 417.633249,110.229429 413.137228,112.100067 C410.769681,113.085121 408.678357,113.537468 406.867961,113.488859 C404.925428,113.436703 403.285957,112.820288 401.94058,111.661769 C400.21472,109.789293 399.471411,107.447601 399.696049,104.527304 C399.898646,101.89354 400.202982,99.5625164 400.607244,97.5338622 C400.683555,96.9965667 400.737078,96.5308122 400.76649,96.1365307 L400.776,95.98 L400.696651,96.00022 C398.491383,96.5988606 394.804812,99.6604237 389.440912,104.691648 L389.088712,105.022559 L388.445026,105.6635 C386.070618,108.017215 384.292148,109.657778 383.112748,110.588883 C381.534765,111.834658 380.403077,112.192819 379.706468,112.10329 C378.684786,112.086436 377.945507,111.770618 377.435997,111.261107 C376.912195,110.737305 376.593103,109.970667 376.593103,108.904 C376.593103,107.394817 377.258107,104.236839 378.630341,99.4325626 C378.73564,99.0211855 378.839749,98.620898 378.942678,98.2316558 L379.087,97.691 L378.017278,98.4352332 C369.384632,104.466934 361.489614,110.682851 354.332634,117.083504 L353.264623,118.044987 C350.71537,119.546609 349.00878,123.067228 347.768236,128.525621 C344.6628,138.795612 341.505309,147.049811 338.283709,153.358777 C335.49652,158.100501 332.723061,161.393686 329.966566,163.323232 C328.06718,164.170918 326.557127,164.454758 325.267172,164.323893 C323.854154,164.180544 322.674512,163.559058 321.73186,162.452466 C320.051977,160.48043 319.35858,157.612368 319.799695,153.789376 C320.899805,147.317627 323.29076,141.514134 326.973872,136.330538 C330.737493,130.953936 334.97112,125.913038 339.674912,121.207979 L340.245564,120.600458 C342.631292,118.011264 344.00123,115.93181 344.20999,114.312274 L344.412874,113.516799 C344.942002,111.479656 345.682361,108.913877 346.634352,105.819575 L347.211135,103.800833 L344.507846,106.404001 C342.014538,109.102131 339.823359,110.922157 337.953421,111.891755 C335.735251,113.041917 333.920103,113.042445 332.471653,112.157282 C330.711929,111.00725 329.617138,109.153426 329.251926,106.514924 C328.998746,104.685799 329.101891,102.458456 329.576543,99.8335379 C324.858042,103.088946 319.965948,106.057319 314.898322,108.74028 L313.663692,109.386353 C307.564967,112.639006 301.19499,114.806728 294.551094,115.891441 C290.928401,116.471072 287.667088,115.603813 284.768408,113.284869 C281.830768,110.355878 280.508588,106.511369 280.794829,101.645278 C280.852183,100.670269 280.92478,99.7226448 281.011937,98.8025344 C277.08127,100.167851 272.981899,99.7097033 268.714251,97.3818956 C266.815757,96.060513 265.122755,95.3839827 263.524239,95.353822 C261.993803,95.3249459 260.573563,95.907137 259.249157,97.0590541 C254.933224,100.985537 251.074336,105.629271 247.670676,110.988578 C246.822863,112.807841 245.764051,114.347266 244.50021,115.611107 C243.384288,116.410826 242.550335,116.57468 241.883574,116.431802 C241.15452,116.275577 240.499421,115.762376 240.064627,114.675391 C239.173594,111.57577 239.37559,108.571863 240.649243,105.567484 C241.05578,104.145856 241.474641,102.724231 241.905495,101.302923 C239.539926,102.922285 237.006853,104.541941 234.307599,106.161493 C229.784232,108.875513 225.752949,110.846027 222.210186,112.081849 L221.72501,112.247312 C214.040634,114.951074 208.573108,114.839004 205.193103,112.304 C203.154834,110.170153 202.092666,107.910338 201.855774,105.422284 C201.728405,104.08453 201.842007,102.675838 202.20392,101.197243 L202.233,101.082 L202.199905,101.110428 C201.194304,101.945137 200.071061,102.866599 198.831859,103.87341 C191.689488,109.802925 185.981945,112.889876 181.750493,113.278975 C179.583456,113.445999 177.928892,113.027333 176.701221,112.119907 C175.426638,111.177805 174.5762,109.687047 174.192069,107.591522 L174.20774,106.18111 L174.305327,101.830188 C174.320188,100.977863 174.314491,100.295914 174.286159,99.7844577 L174.285,99.765 L174.19815,99.8157892 C173.728072,100.099444 173.08057,100.672183 172.269644,101.274531 L172.079613,101.413942 C170.18006,102.78948 168.313381,104.328786 166.479586,106.031715 C165.146495,107.362707 164.001035,108.302437 163.052906,108.864292 C161.840398,109.582815 160.881512,109.702664 160.162627,109.48153 C159.434924,109.370684 158.84705,109.07216 158.385997,108.611107 C157.934812,108.159922 157.598456,107.537861 157.416916,106.72093 C157.394504,103.152173 157.939772,99.7752664 159.035355,96.4097878 L159.205,95.902 L159.096059,95.9163039 C158.517351,96.0096265 157.963252,96.2792671 157.428973,96.707852 L157.251608,96.8565767 C154.949276,98.4883869 152.859478,100.251839 150.90021,102.211107 C148.640555,104.207518 146.621279,106.356087 144.796823,108.699477 L143.853055,110.038303 C143.199044,110.959864 142.515306,111.911155 141.80184,112.892172 C140.568623,114.587845 138.947568,115.584309 136.945161,115.892372 C136.107389,115.904 135.541225,115.666335 135.085997,115.211107 C134.135505,113.738639 133.954529,112.364527 134.404603,110.91115 C134.548076,109.021122 134.889043,107.131015 135.428143,105.240769 C135.698952,104.160906 136.035741,103.081008 136.43866,102.001105 L136.526,101.667 L136.078876,102.036792 L133.831859,103.87341 C126.689488,109.802925 120.981945,112.889876 116.750493,113.278975 C114.583456,113.445999 112.928892,113.027333 111.701221,112.119907 C110.426638,111.177805 109.5762,109.687047 109.192069,107.591522 L109.20774,106.18111 L109.305327,101.830188 C109.320188,100.977863 109.314491,100.295914 109.286159,99.7844577 L109.285,99.765 L109.19815,99.8157892 C108.728072,100.099444 108.08057,100.672183 107.269644,101.274531 L107.079613,101.413942 C105.18006,102.78948 103.313381,104.328786 101.479586,106.031715 C100.146495,107.362707 99.0010349,108.302437 98.0529058,108.864292 C96.8403977,109.582815 95.8815119,109.702664 95.1626275,109.48153 C94.4349244,109.370684 93.84705,109.07216 93.3859967,108.611107 C92.9348122,108.159922 92.5984565,107.537861 92.4169164,106.72093 C92.3945042,103.152173 92.9397719,99.7752664 94.0353552,96.4097878 L94.205,95.902 L94.096059,95.9163039 C93.5173514,96.0096265 92.963252,96.2792671 92.4289734,96.707852 L92.2516081,96.8565767 C89.9492764,98.4883869 87.8594783,100.251839 85.9002102,102.211107 C83.6405547,104.207518 81.6212787,106.356087 79.7968231,108.699477 L78.853055,110.038303 C78.1990437,110.959864 77.5153065,111.911155 76.8018395,112.892172 C75.5686226,114.587845 73.9475684,115.584309 71.9451606,115.892372 C71.1073892,115.904 70.5412251,115.666335 70.0859967,115.211107 C69.135505,113.738639 68.9545285,112.364527 69.4046026,110.911158 C69.5480659,109.021245 69.8889997,107.131254 70.4280452,105.241159 C70.6989868,104.160702 71.0359823,103.080211 71.4392385,101.999749 L71.8340757,100.512784 C73.2968238,95.1047237 74.5761253,91.5345123 75.6383159,89.7850219 C76.4426765,88.4601926 77.3094928,87.9013318 78.1045569,87.8104673 C78.9374504,87.7152795 79.8566894,88.0746519 80.7629753,89.2638535 C81.1275839,89.6785553 81.3834307,90.443346 81.1814751,91.7560572 C80.9317193,93.0573042 80.5459116,94.4060821 79.9501069,96.1952552 L79.5202541,97.7528736 C79.3789183,98.2585417 79.2422924,98.7406533 79.1098134,99.2011683 L79.043,99.429 L79.3036751,99.2067317 C79.60923,98.9429624 79.9110456,98.6792283 80.2232812,98.4038016 L80.7012196,97.9804262 C83.2749838,95.2765176 86.1178131,92.9089447 89.2290911,90.8774936 C92.0163383,88.8343221 94.9507142,88.1992867 98.024724,88.9311938 C99.4561431,89.7842886 100.224329,90.6749712 100.664071,91.71436 C101.089644,92.7202596 101.210612,93.8768108 100.993103,95.1888708 L100.993103,97.0233752 L101.387869,96.707563 C104.340804,94.5762627 106.878748,93.2728973 108.986901,92.7606484 C111.385103,92.177922 113.275048,92.5786219 114.702751,93.8164646 C115.694843,94.6382328 116.208656,95.8068017 116.291972,97.5564349 C116.343461,99.4047619 116.240579,101.943137 115.993232,105.537127 C115.994881,105.744509 116.012936,105.920111 116.077487,106.055891 C116.449011,106.260769 116.932413,106.098878 117.532168,105.871409 L118.223882,105.603727 C119.703454,105.01878 120.777462,104.512577 121.438403,104.07195 C125.420142,101.681586 129.098833,98.9224186 132.507739,95.7758 C134.829267,93.5908326 137.288407,91.6122745 139.885053,89.8399914 L140.546167,89.5094344 C141.453385,88.3884042 142.310577,87.8900539 143.078766,87.8091918 C143.959233,87.7165111 144.868197,88.0896854 145.762834,89.263693 C146.127518,89.678358 146.383457,90.4431767 146.181475,91.7560572 C145.931719,93.0573042 145.545912,94.4060821 144.950107,96.1952552 L144.520254,97.7528736 C144.378918,98.2585417 144.242292,98.7406533 144.109813,99.2011683 L144.043,99.429 L144.303675,99.2067317 C144.60923,98.9429624 144.911046,98.6792283 145.223281,98.4038016 L145.70122,97.9804262 C148.274984,95.2765176 151.117813,92.9089447 154.229091,90.8774936 C157.016338,88.8343221 159.950714,88.1992867 163.024724,88.9311938 C164.456143,89.7842886 165.224329,90.6749712 165.664071,91.71436 C166.089644,92.7202596 166.210612,93.8768108 165.993103,95.1888708 L165.993103,97.0233752 L166.387869,96.707563 C169.340804,94.5762627 171.878748,93.2728973 173.986901,92.7606484 C176.385103,92.177922 178.275048,92.5786219 179.702751,93.8164646 C180.694843,94.6382328 181.208656,95.8068017 181.291972,97.5564349 C181.343461,99.4047619 181.240579,101.943137 180.993232,105.537127 C180.994881,105.744509 181.012936,105.920111 181.077487,106.055891 C181.449011,106.260769 181.932413,106.098878 182.532168,105.871409 L183.223882,105.603727 C184.703454,105.01878 185.777462,104.512577 186.438403,104.07195 C190.420142,101.681586 194.098833,98.9224186 197.507739,95.7758 C199.829267,93.5908326 202.288407,91.6122745 204.885053,89.8399914 L206.050488,89.2572735 C207.170854,89.4566408 208.022607,89.7904394 208.640719,90.2161349 C210.125561,88.883368 212.106492,87.6686193 214.594377,86.5869299 C216.453172,85.7787585 218.015759,85.7286461 219.293922,86.2878427 C220.562919,86.8430287 221.607649,88.0281206 222.329433,89.9528766 C222.684291,93.0177942 221.80997,95.5466579 219.734058,97.7765202 C217.444707,100.482923 214.584885,102.119164 211.157502,102.690394 C210.111622,102.704 209.443369,102.789331 209.023102,103.051998 C208.740375,104.732142 208.943299,105.542184 209.461325,106.163816 C209.99261,106.801358 210.822259,107.229391 211.912046,107.503483 C218.260145,107.448428 227.685695,102.999781 240.214892,94.3253153 L241.411948,93.4901341 C242.894704,92.4067947 244.203124,91.5043184 245.33683,90.7821411 C245.616292,90.072772 245.844686,89.5647663 246.098676,89.0567864 C246.392124,88.4698912 246.791365,88.0388525 247.278608,87.7465071 C247.754857,87.4607578 248.323538,87.304 248.993103,87.304 C249.632571,87.304 250.150453,87.4896922 250.563675,87.8170408 C250.806232,88.0091913 251.017471,88.2556891 251.187191,88.5641483 C251.632892,88.6772763 251.979923,88.9157436 252.246171,89.2457504 C252.573639,89.6516365 252.793103,90.2544274 252.793103,91.104 C252.793103,91.761894 252.358683,92.7300414 251.227064,93.9527873 C251.14502,94.3224222 251.050765,94.710383 250.944158,95.1168539 L250.888,95.323 L250.995089,95.2269469 C251.201129,95.0382665 251.420554,94.8343928 251.653406,94.6153785 L251.890734,94.3913192 C254.245152,91.9053077 257.012824,89.970214 260.194377,88.5869299 C262.368196,87.9568149 264.41801,87.9568149 266.467825,88.5424761 C269.635804,90.0420267 272.647034,91.3527246 275.658585,92.533802 C277.712277,92.8495751 279.539763,92.3183566 281.142312,90.9447434 C281.704144,90.600003 282.098162,90.390661 282.473886,90.2101213 C282.524789,90.0162795 282.576795,89.8248875 282.629728,89.6358439 C286.114462,77.1166149 290.874216,64.2548841 296.911369,51.0487639 L297.585793,49.583539 C303.98755,35.7692212 309.363545,26.6542512 313.675203,22.2078542 C315.213656,21.1308995 316.452833,20.5324442 317.536151,20.2593387 C318.804732,19.9395283 319.888428,20.0480932 320.798579,20.5137518 Z M340.05,130.731 L339.975139,130.812736 C339.665725,131.1484 339.322625,131.53171 338.94568,131.962505 C337.10516,134.065957 335.101801,136.794963 332.932674,140.147251 C330.766424,143.495092 328.894736,146.941095 327.317907,150.485418 C326.466286,152.552856 326.150958,154.680175 326.153535,156.860116 C326.275482,156.873666 326.390711,156.674687 326.542312,156.544743 C327.403335,155.806724 328.023873,155.196308 328.485997,154.596893 C328.892344,154.190546 329.298539,153.743428 330.005277,152.887755 C330.761782,151.877302 331.393424,150.86729 331.918946,149.818357 C333.89044,146.269668 335.5334,142.589567 336.879292,138.697862 C337.932643,136.327823 338.854406,133.957814 339.718946,131.418357 C339.816826,131.242174 339.906574,131.0655 339.984606,130.889005 L340.05,130.731 Z M97.8755623,-0.995846142 C101.853733,-1.06563861 105.44609,-0.25714804 108.655669,1.41741515 C110.318703,2.32433051 111.417224,3.22505716 112.014009,4.08293551 C112.393478,4.62842296 112.591954,5.17171352 112.639176,5.70296021 C112.68737,6.24514608 112.582167,6.78409162 112.306345,7.31657841 C112.104784,7.83843171 111.817613,8.2352009 111.468171,8.52439432 C111.078435,8.84693481 110.604679,9.04551776 110.037913,9.09949547 C109.204992,9.17882121 108.103768,8.91437106 106.744942,8.19877297 C101.069644,5.62696515 95.0725094,4.85937793 88.7542353,5.89093288 C82.9590778,6.43241276 77.1658401,7.03171583 71.3141578,7.69664588 C65.8617645,8.36157189 60.3428808,9.15949754 54.7575024,10.0903939 C52.018037,10.104 49.6206838,10.5773051 47.4023606,11.5292118 C47.0508681,12.0153594 46.4449624,13.4230282 45.5200165,15.6889297 L44.8087766,17.4618181 C43.7421006,20.1580288 42.4589941,23.5430728 40.9598849,27.6154524 L40.0325737,30.1466303 C37.9671062,35.8100091 35.6018229,42.4394974 32.939985,50.0255824 L27.5401693,65.9250393 C26.2699209,69.6722723 25.3644262,72.5063841 24.826423,74.4209538 L24.5118011,75.5711746 C24.2708791,76.470225 24.0962882,77.1632838 23.9909897,77.6508182 L23.988,77.659 L24.0319067,77.6566521 C24.8790452,77.5837098 25.7101199,77.4314583 26.7054307,77.2346136 L27.1425735,77.1476226 L30.7177362,76.4219737 L33.3983559,75.8846471 C52.8700839,72.0431051 65.7151166,70.6070492 71.9374103,71.514467 C73.815819,72.49443 74.3963826,73.440007 74.4417213,74.3014412 C74.4875838,75.1728289 74.0074569,76.1629481 72.5478036,77.1360503 C70.5726494,77.5980273 68.1715019,77.8507693 64.6762767,78.1009399 C49.2862387,79.8266475 35.0214537,82.2138606 21.8832556,85.2635236 C21.6315354,85.3891674 21.4595975,86.0902767 21.1246649,86.91662 C20.4295638,88.6902248 19.6747269,91.0583728 18.7556872,94.2749844 L18.3972788,95.5480894 C17.5390887,98.6390286 16.5282711,102.570002 15.3653361,107.338016 L15.0115247,108.807937 C10.0475571,129.582156 8.30883548,143.226706 9.92807086,149.722228 C10.6120473,150.870561 11.5430338,151.712116 12.726234,152.241076 C14.013557,152.816586 15.5830961,153.027099 17.4276702,152.906143 C21.4336828,152.643454 24.8818169,152.185609 27.762031,151.531063 C38.4032414,149.003776 48.9779265,146.010833 59.4860975,142.552274 L60.5725788,142.208885 C68.2763407,139.785199 73.4788652,138.399151 76.177575,138.036311 C77.8831428,137.827562 79.1158175,137.951864 79.935393,138.311024 C80.4950519,138.556281 80.8996502,138.908437 81.1745901,139.343803 C81.4436749,139.769899 81.5931034,140.286497 81.5931034,140.904 C81.5931034,142.005691 81.0222903,143.011562 79.6488229,143.816698 C78.6128224,144.424009 77.0674951,144.923935 74.9987984,145.283267 L74.2091575,145.47878 C70.8330858,146.338085 65.5987505,147.930316 58.5045713,150.254349 C48.7367042,153.598935 38.7682185,156.341686 28.5892196,158.484581 C25.894508,159.023523 22.9303758,159.461778 19.6967095,159.798618 C16.355569,160.146654 13.2234593,159.831138 10.2993264,158.860356 C7.09220063,157.976006 4.73444386,155.803217 3.27002653,152.288615 C1.08691754,142.40283 3.51270065,124.190015 10.6080687,97.4675764 L13.0060482,88.4962296 C13.1074463,88.1114599 13.1973287,87.777274 13.2743476,87.4938044 C13.0377608,87.5450039 12.8034439,87.6043342 12.5455253,87.6716173 C11.0211882,88.0692704 9.46371605,88.5000713 7.88143546,88.9615305 L7.05433026,89.210536 C6.09321218,89.5105213 5.45639987,89.737468 5.16351546,89.9258719 C4.50536418,90.4054041 3.46591979,90.704 1.99310345,90.704 C0.0707691863,90.1809632 -0.697724807,89.3637926 -0.927039052,88.4465356 C-1.14578392,87.5715562 -0.877679085,86.4416971 0.212234639,85.079305 C3.37376614,83.3281034 7.90864348,81.7621318 14.1406816,80.1363827 C14.6464368,80.104 14.871889,80.0496259 15.0634033,79.9219497 C15.2802331,79.7773965 15.4495462,79.5522954 15.5934011,79.2670468 C16.16778,78.0199961 16.8784272,76.0062625 17.8424582,72.99372 C24.1157918,53.7732938 30.3891938,35.887964 36.662527,19.3376819 L37.3349066,17.6913072 C37.8281489,16.4727088 38.2649918,15.3669502 38.6441812,14.3772181 L38.9567743,13.5528766 C39.063754,13.2675973 39.1586688,13.0068908 39.2413742,12.7707131 L39.284,12.646 L38.7357553,12.6934464 C33.1855607,13.2048862 27.5128253,14.3471202 21.6985285,15.9730806 L20.6710027,16.2650063 C17.1849902,17.3757724 13.6294314,17.5831555 10.0042561,16.8860064 C8.77038056,15.7966232 8.49749068,15.0000307 8.54482908,14.195278 C8.59298765,13.3765822 8.98886864,12.5099178 9.83844476,11.6319676 L10.7802963,11.3289527 C15.4398378,9.878065 24.5179729,7.93926522 38.0166701,5.51968742 C40.9210814,5.18259852 42.8372198,4.7796993 43.2986763,3.8567864 C44.2629975,2.48568324 45.1804672,1.89470802 46.044763,1.76506365 C46.9820745,1.62446692 47.9645945,1.96603332 48.9330435,3.03132721 C49.635465,3.39323219 50.1087595,3.42530784 50.7021307,3.41274707 C52.547383,3.33733333 56.0437832,2.90544449 61.4538486,2.11374342 C70.011358,0.910343658 78.6357097,0.0411487946 87.3253897,-0.493822451 C90.5412006,-0.761408699 94.0579184,-0.928869934 97.8755623,-0.995846142 Z" fill="url(#linearGradient-1)" fill-rule="evenodd"></path>
                </g>
            </g>
            <text id=".com" stroke-opacity="0.0108036495" stroke="#000000" stroke-width="3" fill="#E7E7E7" fill-rule="nonzero" font-family="LEMONMILK-Bold, LEMON MILK" font-size="39" font-weight="bold">
                <tspan x="682" y="256">.com</tspan>
            </text>
            <g id="Group-25" transform="translate(443.500000, 174.758065) rotate(5.000000) translate(-443.500000, -174.758065) translate(377.000000, 134.000000)">
                <path d="M52.6445229,36.5608199 C52.6975756,35.3120214 52.339711,34.1384401 52.2924459,32.9436437 C52.2143137,30.9638882 52.2586851,28.9870257 52.3782948,27.0101632 C52.4506394,25.795116 52.4747543,24.5771758 52.5837535,23.3659859 C52.7496637,21.5357005 52.915574,19.7160227 53.3554291,17.9088811 C54.3248467,13.9291193 56.0225332,10.2299757 57.483894,6.43536396 C58.27872,4.37171237 59.5693475,2.63689498 60.8561167,0.89436301 C61.6326154,-0.157713572 62.5470511,-0.288861523 63.5174332,0.539492082 C65.1736422,1.95222553 67.0102303,3.15087924 68.3394416,4.95319925 C70.0998268,7.33797045 71.84092,9.73624219 73.6109511,12.1113702 C75.3115314,14.3948874 76.4700095,16.9551655 77.4500376,19.561731 C78.4291011,22.1682965 79.2991655,24.8414004 79.8538073,27.5935787 C80.1537963,29.0757434 80.5618198,30.5376574 80.5174484,32.0728598 C80.5116609,32.2811537 80.6505625,32.4923404 80.7229071,32.7035272 C81.1907355,32.5878084 81.2804428,32.1827927 81.4945828,31.9050676 C83.495152,29.310074 86.0387879,27.5270404 89.2885071,26.9436249 C92.2835733,26.4055326 94.6477947,27.5656133 95.8969447,30.5415147 C96.8442731,32.7989952 97.1741644,35.1268713 97.1423328,37.5858954 C97.1133949,39.8530192 96.7478136,42.0536047 96.4265071,44.271548 C96.262526,45.4046277 96.5481425,45.7961429 97.6564617,46.1741576 C99.8779231,46.9321156 101.956624,46.3178418 103.94176,45.4634514 C106.657094,44.2956561 109.113916,42.6312343 111.473315,40.8713445 C114.183826,38.8481945 116.54033,36.4181001 118.923843,34.0198283 C120.568477,32.3650498 121.696088,30.3042911 123.390881,28.7064077 C123.769002,28.3496081 123.800834,27.9503783 123.553897,27.3775703 C122.459083,24.8336858 124.072849,21.2541182 126.554751,20.3274036 C130.742056,18.7632714 132.783139,21.7690667 132.983774,24.8684014 C133.143897,27.3274255 132.115639,28.9523101 130.04369,30.0824968 C129.77071,30.2319669 129.509305,30.354436 129.205457,30.3496143 C128.276553,30.3341852 127.888786,30.7199144 127.682362,31.6987025 C126.928049,35.2792344 126.028083,38.8298723 125.182133,42.3920821 C124.161592,46.6929635 123.080282,50.9774513 121.813769,55.2146874 C121.226331,57.1790137 120.564619,59.1346611 120.165277,61.1404533 C119.63282,63.8058425 118.502316,66.2986179 118.054744,68.9765434 C117.938992,69.6641058 117.59849,69.8743282 116.899159,69.8752926 C115.229446,69.8762569 113.605069,69.4943849 111.94886,69.3912023 C107.765413,69.1298708 103.58486,68.6882107 99.397555,68.6197438 C94.9651463,68.5464552 90.5289758,68.2754804 86.0937698,68.5290974 C83.2530387,68.692068 80.375653,68.6573524 77.5831517,69.1250491 C73.7508173,69.7672884 69.87797,70.1366241 66.0668568,70.8907249 C64.0711105,71.2860974 62.0821165,71.7287217 60.0960162,72.177132 C57.9719789,72.6564006 55.8392602,73.0864887 53.7547713,73.7239064 C51.4542132,74.4278623 49.1575135,75.152069 46.8502032,75.8338455 C44.3113902,76.5831246 41.806338,77.4240144 39.2993567,78.2755117 C35.7428964,79.4828443 32.2337012,80.8743627 28.4997556,81.4915295 C27.5235858,81.6525715 26.1249237,81.0016533 25.6214053,80.1607635 C23.7336936,77.0035695 21.7996815,73.8724121 19.9843144,70.6737522 C19.1673028,69.2340177 18.4284234,67.7383524 17.5082001,66.3661205 C15.3532958,63.1520314 13.570725,59.7248268 11.6830133,56.359339 C10.4550844,54.172254 9.41910981,51.8771649 8.26641927,49.6466854 C7.79569711,48.7373286 7.18028575,47.9041534 6.8320671,46.927294 C6.62178548,46.3361639 6.14334656,46.5251712 5.73725223,46.5830306 C3.6903825,46.8761849 2.05925303,46.0999047 1.01845546,44.4075176 C-0.151597786,42.5039436 -0.376348327,40.4181126 0.67409519,38.3361389 C1.33580708,37.0246593 4.12348547,35.9253309 5.56362521,36.3698839 C6.92563278,36.7903288 8.03877494,37.6128965 9.07282035,38.5540759 C10.2428736,39.6206173 10.1936793,41.0516729 10.0866093,42.4354767 C10.0422379,43.0044273 10.1956085,43.3342259 10.6113487,43.5859142 C12.9012963,44.9706823 14.876786,46.8096466 17.2294323,48.1085899 C19.245435,49.2204545 21.1572615,50.4731103 23.3951209,51.2069603 C25.384115,51.8578784 27.2158801,52.9658857 29.2569623,53.5512299 C31.3588139,54.1529675 33.4220818,54.9070683 35.6454723,54.9118899 C37.4675915,54.9167115 39.1778178,54.6013778 40.5485067,53.2378249 C40.8716459,52.9157409 40.883221,52.6871963 40.7134524,52.2966454 C39.9890418,50.630295 39.1816761,48.9870883 38.6260696,47.2638428 C37.5553696,43.9407851 36.8772596,40.5646897 37.8910486,37.059375 C38.6202821,34.5376699 40.6546121,32.8867486 43.3217161,32.9677518 C46.6968326,33.0709343 49.7690664,34.0439364 52.2625435,36.4547443 C52.3242775,36.5145324 52.4477456,36.5087464 52.6445229,36.5608199" id="Fill-1" fill="#F2C230"></path>
                <path d="M60.7075342,27.4586317 C60.6139156,25.9634581 60.6798307,23.4856866 61.7765061,21.1500824 C62.2856768,20.0659364 62.7623675,18.977922 63.5084507,18.0291735 C64.3166278,16.9982194 65.0588898,16.8715261 66.0361536,17.7254966 C68.6087553,19.9740597 70.1400885,22.8551218 71.0132255,26.1462445 C71.5395914,28.1298157 71.7688616,30.1569074 72.107035,32.1714265 C72.6171609,35.20336 72.1939665,38.0302632 71.1316817,40.8204157 C70.6702756,42.032222 69.9901076,43.1376447 69.1360765,44.1173412 C68.4883884,44.8591252 67.8139522,44.951002 66.9560999,44.3349441 C64.8898031,42.8484746 63.4683284,40.8368569 62.5034834,38.48868 C61.1870909,35.2845984 60.6912942,31.9209414 60.7075342,27.4586317" id="Fill-2" fill="#E86DB0"></path>
                <path d="M62.547912,49.863623 C62.6666163,48.3349304 63.5824729,47.5623024 64.9895529,47.746447 C66.1601894,47.8994137 67.2478294,48.308624 68.1106069,49.1397106 C68.5584019,49.5703557 68.6828966,49.3209323 68.8942482,48.952643 C69.4250397,48.0280227 70.1691128,47.3460055 71.1515597,46.9085403 C73.227437,45.9839199 74.8333225,47.0790445 74.7725228,49.3852367 C74.7281293,51.0318209 74.0776684,52.5108238 73.5545975,54.0249018 C72.9659015,55.7299446 72.2198982,57.3531454 71.0260998,58.7259484 C70.3302804,59.5258571 69.4317952,59.7187705 68.6433286,59.0299332 C66.2499414,56.9390636 64.0601852,54.6591777 62.8355045,51.6280988 C62.5961658,51.0357182 62.4475441,50.4111854 62.547912,49.863623" id="Fill-3" fill="#E86DB0"></path>
                <path d="M59.4661318,11.6347144 C59.5095134,9.98355965 60.9992789,9.23679634 62.5373557,10.2416757 C63.4582299,10.842633 63.9945849,10.6505237 64.6630568,9.95794508 C65.4705471,9.12251594 66.3470537,8.99247272 67.1328532,9.46732749 C67.8042829,9.87420513 68.2016194,10.9874539 67.9620344,11.9105637 C67.6051217,13.2858692 66.8360833,14.4257177 65.9043637,15.4828114 C64.7912299,16.7448217 63.8673978,16.8689538 62.4634097,15.9448589 C61.368023,15.2227249 60.4323595,14.3725182 59.8289602,13.1843961 C59.5775438,12.6908229 59.3981015,12.1952795 59.4661318,11.6347144" id="Fill-4" fill="#E86DB0"></path>
                <path d="M83.3548387,51.8011111 C83.3993726,52.418057 83.4058672,53.1470877 83.5153464,53.8588746 C83.6220423,54.5495857 83.9625413,54.8312349 84.5136488,54.1845914 C85.0619728,53.5427378 85.6520474,52.9248339 86.1168703,52.2207109 C88.1413087,49.1580155 89.4207315,45.790679 89.869782,42.0976258 C90.0581234,40.5562192 90.2473926,39.0128966 89.9143159,37.4714899 C89.6100007,36.061328 88.7601448,35.7748888 87.7312254,36.6830638 C87.3109364,37.0547641 87.0001267,37.4916077 86.7050894,37.9706029 C85.9647127,39.171923 85.5973078,40.5073617 85.1547518,41.8408844 C84.0905764,45.0472784 83.5598804,48.3331857 83.3548387,51.8011111" id="Fill-5" fill="#E86DB0"></path>
                <path d="M55.1609087,57.2855014 C55.0541121,56.7102107 54.9785038,56.0160267 54.7932637,55.3534837 C53.7820039,51.7349056 52.171549,48.3991787 50.071531,45.3069916 C49.2540172,44.1036753 48.2503182,43.0604817 47.0670497,42.233022 C46.5604747,41.8792182 45.9423776,41.39118 45.2770254,41.890724 C44.6929519,42.3308214 44.7175246,43.0077467 44.7628895,43.695219 C44.9462395,46.4786668 46.3525522,48.7443531 47.7295667,51.0244217 C49.3967277,53.7848579 51.4116865,56.2164196 54.1487037,57.9585914 C54.3651322,58.0966612 54.5758901,58.328695 54.8528052,58.1752842 C55.145787,58.0142028 55.1646891,57.6997106 55.1609087,57.2855014" id="Fill-6" fill="#E86DB0"></path>
                <path d="M124.99325,25.218228 C124.99325,25.3840922 124.987462,25.5509206 124.994214,25.7158205 C125.069453,27.5875782 126.959095,29.8547098 129.419777,28.7968436 C130.714264,28.2413916 131.667284,26.7225773 131.589152,25.2944098 C131.477259,23.2683598 130.600442,21.9048022 128.631703,21.310777 C128.111786,21.1535918 127.565825,21.1188761 127.099926,21.4351751 C125.769749,22.3368204 125.013506,23.57598 124.99325,25.218228 M8.34600464,41.8605747 C8.37880088,40.0543911 7.14122522,38.1893837 5.62102316,37.7544724 C3.2346146,37.070765 1.09224863,39.3755053 1.57358164,42.1074422 C1.93434025,44.1566361 3.64167378,45.3736161 5.88435765,45.1817151 C7.11228736,45.0756392 8.31706678,43.4507491 8.34600464,41.8605747 M65.314998,66.6485872 C64.0967142,64.6553244 62.960421,62.7970672 61.8424552,60.9388101 C60.0589186,57.9744704 58.8985106,54.7536199 57.4303967,51.6648822 C56.6702957,50.0669931 56.0365566,48.3929223 55.5166398,46.7005293 C54.9861124,44.9801709 54.0118712,43.4227836 53.7668641,41.5982779 C53.583591,40.2260413 53.0106214,39.1344237 51.8588947,38.143096 C49.2429125,35.8904293 46.4754888,34.4400823 42.9035928,34.7997761 C40.4515917,35.0466436 39.5246157,35.9540749 39.319157,38.3552479 C39.0944063,40.9840019 39.7011367,43.6195062 40.7699082,46.0717885 C41.8869094,48.6349683 43.1910421,51.121002 44.7932348,53.4054915 C47.3523059,57.0525743 49.6808387,60.8857721 53.2073988,63.7777873 C54.8095915,65.0921643 56.4696599,66.2715356 58.3612311,67.0728909 C58.9100857,67.3062579 59.4039585,67.8482094 60.062777,67.7247756 C61.7778273,67.4017262 63.4841962,67.0275676 65.314998,66.6485872 M76.3769759,65.2811723 C76.8110437,65.2811723 77.1370769,65.2782793 77.4631101,65.2821366 C78.6958628,65.2994945 79.8813503,64.8192599 81.1189259,64.9137639 C81.6600639,64.9552299 82.0295038,64.7266845 82.4674301,64.4393152 C83.6895722,63.6369956 84.5760352,62.5164482 85.4634628,61.4103657 C86.7251533,59.8394779 88.0823388,58.3071631 88.9543329,56.4778357 C90.8777357,52.4430936 92.750015,48.3861721 93.6220091,43.9464129 C94.0744043,41.6455299 94.8595848,39.4140783 94.9579735,37.0379779 C95.0322473,35.2375803 94.7949569,33.4805774 94.4679591,31.7197172 C94.0589707,29.5181598 92.2985845,28.2539278 90.0771217,28.5432258 C86.5225883,29.0061025 83.9509775,30.9405414 82.0555479,33.8557004 C81.545277,34.6396979 80.9211839,35.4574467 80.9134672,36.4449171 C80.9009274,38.1758831 81.261686,39.8933486 80.9723075,41.6426369 C80.7697425,42.8634742 80.8980336,44.1257776 80.6858227,45.3581869 C80.268153,47.783468 79.8456603,50.2106778 79.4607868,52.6398162 C78.7846055,56.9127469 78.0360796,61.1528905 76.3769759,65.2811723 M55.3188978,68.936934 C55.3671275,68.8646095 55.4143927,68.792285 55.4626224,68.7189962 C55.3439772,68.6601723 55.225332,68.6042414 55.108616,68.5425245 C52.849534,67.3467596 51.0225907,65.6071146 49.2921069,63.7768229 C47.9522841,62.3602273 46.3587728,61.1933923 45.2379132,59.5607875 C44.1942212,58.0410089 43.0723969,56.5742683 42.04028,55.0467752 C41.7412555,54.6022207 41.644796,54.6379007 41.2579933,54.9532355 C40.1988678,55.817272 39.021097,56.4585492 37.6378675,56.7131314 C34.3621021,57.3148711 31.255141,56.6070554 28.2195598,55.4942227 C26.2633607,54.7767638 24.4055504,53.7921864 22.4821475,53.002403 C19.6877152,51.8529258 17.1132105,50.3495408 14.5763251,48.7593664 C12.7628861,47.6214612 10.7150505,46.8654292 9.10321188,45.4006172 C8.81190413,45.1354274 8.5157734,45.1711075 8.21578429,45.435333 C7.91193679,45.7024514 8.01997146,45.952212 8.17720048,46.229938 C8.2929519,46.4314823 8.37108412,46.6542417 8.49358771,46.8509643 C10.046586,49.3427839 11.2841617,52.0110754 12.6085509,54.6176499 C14.0795586,57.5135223 15.9229,60.1586699 17.5713933,62.9311086 C18.6903237,64.8134739 20.0253235,66.5637265 21.1963421,68.4161977 C22.4397053,70.3824594 23.5991488,72.4027234 24.8048928,74.3930933 C25.557277,75.6341815 26.4234835,76.8183745 27.0523996,78.1182866 C27.4092998,78.8569607 27.6494841,78.9784658 28.2494623,78.485695 C28.3999391,78.3622612 28.5754955,78.2658285 28.7500872,78.1761462 C34.3437748,75.3092035 40.2750708,73.3091904 46.2555611,71.4557548 C49.2496647,70.5271084 52.2958564,69.7710764 55.3188978,68.936934 M96.0508599,47.4006304 C95.1489633,50.0612072 94.3001195,52.6658531 92.9959868,55.0814909 C91.3272371,58.1702287 89.5109043,61.1702484 87.2450701,63.8742199 C87.0772306,64.0738355 86.6431627,64.2532002 86.8814177,64.5849285 C87.0511865,64.8202242 87.4341308,64.7141483 87.7321907,64.7199343 C90.3404562,64.7691149 92.9506508,64.7874371 95.5569871,64.8954417 C97.2428102,64.9658375 98.9530375,65.2609214 100.608283,65.1808823 C102.685056,65.0805924 104.682733,65.4316072 106.710312,65.6090433 C109.734318,65.8732687 112.698519,66.5521546 115.685871,67.0671049 C116.127655,67.1442511 116.275238,67.0960347 116.353371,66.6717311 C116.776828,64.3978492 117.769396,62.2936888 118.275809,60.0313788 C119.238475,55.7324113 120.920729,51.637881 122.111039,47.3996661 C122.548966,45.8384215 123.327394,44.3437154 123.558897,42.7612556 C123.876249,40.5953783 124.579439,38.5375056 124.994214,36.4053797 C125.360761,34.519157 125.896111,32.6657215 126.367798,30.8007141 C126.466187,30.4111262 126.500912,30.0977201 126.039836,29.9029261 C125.718625,29.7669561 125.441787,29.7351333 125.26623,30.0610757 C124.649854,31.2028382 123.561791,31.8759381 122.671469,32.7496179 C119.935877,35.4323742 117.364266,38.2790661 114.512923,40.8470675 C111.646146,43.4276052 108.626963,45.7844192 105.012625,47.2405522 C102.072538,48.4247451 99.0967622,49.0313065 96.0508599,47.4006304 M78.8772067,40.2231483 C78.9292948,38.8190889 78.5598548,37.4555312 78.4981207,36.0669011 C78.2888036,31.2992709 77.4544287,26.632895 75.9255453,22.119847 C74.2847689,17.2741063 72.2292165,12.6385889 68.891717,8.6443485 C67.037765,6.42543324 65.17899,4.23930507 62.9662086,2.36658301 C62.4954862,1.96735184 62.2369746,1.99821029 61.8530657,2.49001681 C61.0476287,3.51798885 60.5749771,4.72532562 59.9190523,5.83140811 C58.3911335,8.41001717 57.2201149,11.162205 56.445545,14.0368623 C55.5889844,17.220104 54.8192374,20.4293826 54.7198841,23.7765599 C54.6311414,26.8170813 54.4633018,29.8585671 54.7121674,32.8884809 C54.9619975,35.9492532 55.625639,38.9569876 56.2101837,41.9714722 C56.8728607,45.388081 58.6081674,48.3881007 59.9364151,51.5414484 C60.8691786,53.7603636 62.0488786,55.864524 63.3115337,57.93204 C64.9600269,60.6321542 66.5930866,63.3390187 68.3322518,65.9812733 C68.4875516,66.219462 68.7065147,66.2319982 68.9457343,66.1577451 C70.1640181,65.7739431 71.4334254,65.8067302 72.68547,65.6977613 C72.9430169,65.6746175 73.2873774,65.69969 73.3182444,65.3515681 C73.3963767,64.4634234 73.9375146,63.7556078 74.2114596,62.9426805 C75.0487283,60.4605041 75.6525649,57.9214325 76.3152418,55.3920041 C77.6222683,50.4054717 78.6514914,45.3861523 78.8772067,40.2231483 M52.6450398,36.5606362 C52.697128,35.3118334 52.3392631,34.1382481 52.291998,32.9434476 C52.2148304,30.9636853 52.2582371,28.9868159 52.377847,27.0099466 C52.4511562,25.7958596 52.4743065,24.5769509 52.5842703,23.3667211 C52.7492161,21.5364294 52.9151265,19.715781 53.3559465,17.9086332 C54.3244001,13.9288577 56.0230523,10.2297013 57.484414,6.4350765 C58.2782759,4.3714178 59.5698689,2.63659443 60.8566389,0.894056454 C61.633138,-0.157059427 62.5466097,-0.289172157 63.5179571,0.539184303 C65.1732025,1.95192262 67.0097918,3.15058045 68.3399686,4.95290668 C70.1003548,7.3376861 71.8414492,9.7359661 73.6114814,12.1120666 C75.3120628,14.3946274 76.4705416,16.9558786 77.4496058,19.5614888 C78.4296345,22.1680633 79.2987348,24.8411763 79.8543416,27.5933642 C80.1533661,29.075534 80.5613899,30.5384173 80.5179831,32.0726607 C80.511231,32.2809553 80.6510973,32.4921428 80.7234419,32.7042946 C81.190306,32.5876111 81.2809779,32.1825939 81.4941535,31.9058322 C83.4956885,29.3098653 86.0383615,27.52779 89.2880828,26.9434081 C92.2841155,26.4053139 94.6483384,27.566363 95.8965246,30.5422746 C96.8434677,32.7987986 97.1743239,35.1266827 97.1415277,37.5857153 C97.1125898,39.8528469 96.7479728,42.05344 96.427052,44.2713909 C96.2630708,45.4044745 96.5483016,45.7959911 97.6566215,46.1740071 C99.8780843,46.932932 101.955822,46.3176917 103.941924,45.4642628 C106.657259,44.2964634 109.114083,42.6320359 111.473483,40.8711757 C114.183996,38.8480187 116.539537,36.4179159 118.924017,34.0196359 C120.568652,32.365816 121.696263,30.3040859 123.391057,28.7061969 C123.769179,28.3493961 123.80101,27.950165 123.554074,27.377355 C122.459258,24.834426 124.073026,21.2548461 126.55493,20.327164 C130.741273,18.7630264 132.782356,21.7688321 132.983957,24.8681775 C133.143115,27.3281744 132.114856,28.9530645 130.042906,30.0822908 C129.769925,30.2317614 129.50852,30.3551952 129.205637,30.3494093 C128.276732,30.3339801 127.888,30.720675 127.682541,31.698502 C126.927263,35.2800107 126.028261,38.8296965 125.182311,42.3919186 C124.161769,46.6928147 123.080458,50.9773174 121.812979,55.214568 C121.225541,57.1798654 120.564793,59.1345552 120.164486,61.1403543 C119.632994,63.8057527 118.502489,66.2985367 118.053952,68.9764714 C117.939165,69.6640362 117.598663,69.8752237 116.899331,69.8752237 C115.228653,69.8771524 113.604274,69.4952791 111.949029,69.3920961 C107.764615,69.1307636 103.584059,68.6881378 99.3977159,68.6196706 C94.9656902,68.5463818 90.5295168,68.275406 86.0943081,68.5299882 C83.2535752,68.6929594 80.375223,68.6572793 77.5836845,69.1249777 C73.7503831,69.7672191 69.8775333,70.1375205 66.0673822,70.8906595 C64.0706701,71.2860334 62.0826394,71.7286592 60.0965379,72.177071 C57.9724992,72.6563413 55.8397792,73.0864309 53.7552889,73.7238507 C51.4537647,74.4278091 49.1580281,75.1520183 46.8497518,75.8337971 C44.3119018,76.5830788 41.8058834,77.4249358 39.299865,78.2754718 C35.7434025,79.4828086 32.2342051,80.8743317 28.500257,81.4915007 C27.5231221,81.6525432 26.124459,81.0025871 25.6219049,80.1616944 C23.7341921,77.0044895 21.8001787,73.872357 19.9848105,70.6746504 C19.1677983,69.2339466 18.4279538,67.7382762 17.5086946,66.3660396 C15.3528243,63.1519394 13.5712169,59.724723 11.6825395,56.3592235 C10.4546098,54.172131 9.41959911,51.877034 8.26594324,49.6465468 C7.79522077,48.7371869 7.17980903,47.9040088 6.83255475,46.9281104 C6.6213084,46.3360139 6.14383377,46.5250219 5.73773918,46.5828815 C3.68990354,46.8760368 2.05877304,46.0997539 1.0189394,44.4073609 C-0.152079193,42.5037804 -0.375865283,40.4179422 0.67361431,38.3369256 C1.33532663,37.0244773 4.12397139,35.9251451 5.56411204,36.3696996 C6.92612049,36.7901459 8.03829877,37.6127164 9.07234484,38.5548634 C10.2433634,39.6214085 10.1941691,41.0515047 10.0861344,42.4353133 C10.0427276,43.0042659 10.1951337,43.3350299 10.6108742,43.5857548 C12.9017878,44.9705276 14.8763142,46.8094982 17.2299266,48.108446 C19.2459306,49.2203145 21.1577583,50.4729746 23.3956192,51.2068271 C25.3836499,51.8577474 27.2163808,52.9657586 29.2574643,53.5511048 C31.3583527,54.1528445 33.4216218,54.9079122 35.6459784,54.9117695 C37.4671341,54.9165911 39.1773615,54.6012563 40.5490158,53.2376987 C40.8721552,52.9165779 40.8837304,52.6870682 40.7139616,52.2974803 C39.9895506,50.6311241 39.1821844,48.9869475 38.6265776,47.263696 C37.5558769,43.9406269 36.8777665,40.5645199 37.891556,37.059193 C38.62079,34.5374793 40.6551213,32.8865523 43.3222271,32.9675557 C46.6973457,33.0707387 49.7695815,34.0437441 52.2630601,36.4545603 C52.3247942,36.5143486 52.4482624,36.5085626 52.6450398,36.5606362" id="Fill-7" fill="#73493C"></path>
                <path d="M67.2111629,43.1601529 C67.2188052,41.6437154 66.9369941,40.2646082 66.227212,38.9241858 C65.8040176,38.1263152 65.6655003,37.9899519 64.9069983,38.5305696 C64.2449809,39.0034893 64.1055082,39.3468154 64.5621379,40.0150924 C65.3368798,41.1495192 66.2358097,42.1707935 67.2111629,43.1601529 M68.706195,43.0905206 C69.2086787,41.9067709 69.9375666,41.0441036 70.298667,39.9406245 C70.8470047,38.2684812 70.8842611,38.2820209 69.271728,37.7791207 C69.2411586,37.7694495 69.2124999,37.7510743 69.1828858,37.7346333 C68.954571,37.6060069 68.7835737,37.6891789 68.7396303,37.9251551 C68.4310709,39.5682849 67.9085261,41.2094804 68.706195,43.0905206 M65.2403953,22.9387288 C65.7935094,23.2317649 65.8976362,22.8004312 66.0332877,22.3410512 C66.2023744,21.7675516 66.4182704,21.2075915 66.6322559,20.6485986 C66.7440251,20.3536283 66.8280908,20.1031453 66.551056,19.8352542 C66.0992029,19.399085 65.6865167,18.9222969 65.2423059,18.4764565 C64.8984007,18.1311962 64.5907966,18.1176566 64.2698185,18.5625298 C63.1578585,20.1070138 63.1358868,20.4957943 64.1637811,22.1195817 C64.2870137,22.3159062 64.4293523,22.5025596 64.5353897,22.7085552 C64.6777282,22.9880517 64.8630549,23.1147439 65.2403953,22.9387288 M61.8462424,27.8100911 C61.8462424,28.1756608 61.8414659,28.5421977 61.848153,28.9077675 C61.8519742,29.1195658 61.9112023,29.2723701 62.1643547,29.3265286 C63.0279387,29.5122148 63.8045912,28.9445179 63.6784927,28.077015 C63.5074954,26.8922982 63.7157491,25.7501344 63.9497956,24.6263459 C64.12748,23.7733497 64.104553,23.0847633 63.4654625,22.4658092 C63.2638959,22.2685176 63.2304607,21.8313812 62.8731814,21.8768357 C62.4719587,21.9271257 62.4738693,22.3594264 62.3859825,22.6621337 C61.9035599,24.343948 61.5778053,26.0460718 61.8462424,27.8100911 M69.2468904,28.3980975 C70.3817774,28.3574786 70.4209444,28.3129913 70.1505967,27.2423941 C69.9967947,26.6311769 69.8143339,26.0276966 69.6356943,25.4242164 C69.2373375,24.0808925 68.6163976,22.8429843 67.8779568,21.6640702 C67.7556794,21.470647 67.626715,21.1505317 67.2828098,21.2888293 C67.0478079,21.3826395 66.5137997,23.2211266 66.6551829,23.4841821 C67.3831155,24.8333086 67.8435663,26.2926864 68.3374523,27.7336889 C68.5246895,28.2791422 68.7472726,28.5344608 69.2468904,28.3980975 M70.9377574,37.3410172 C71.3332484,36.3913095 71.1011124,35.4416018 71.2071498,34.5218747 C71.3848341,32.9773907 70.9062328,31.4967365 70.6874709,29.9957727 C70.5451324,29.0151173 69.641426,29.4222731 69.0596531,29.4019636 C68.3240782,29.3768186 68.6889998,29.9919043 68.7434514,30.2839733 C69.016665,31.72691 69.1465847,33.1959589 68.9765427,34.6311587 C68.7921713,36.1804782 69.3739442,36.9899542 70.7849107,37.3400501 C70.8164353,37.347787 70.8508258,37.3410172 70.9377574,37.3410172 M65.2394592,36.7191617 C64.7885421,34.7404428 64.3548395,32.8013757 63.8991652,30.8681112 C63.826563,30.5566999 64.0692071,29.8748833 63.3661122,30.1185965 C62.8072663,30.3129867 61.8214048,30.098287 61.9408163,31.2066017 C62.1815499,33.4532117 62.5932808,35.6640384 63.4301167,37.7742851 C63.5017636,37.9541686 63.5275565,38.1833751 63.7616031,38.2230268 C63.9679462,38.257843 65.2451717,36.9000124 65.2394592,36.7191617 M67.4738682,39.2965253 C67.8435663,37.7936274 68.3536923,36.3797041 68.2209067,34.8178121 C68.0690152,33.0421875 68.0604176,31.2617273 67.8760462,29.4783658 C67.6783007,27.5576738 66.7468909,25.9687026 66.197598,24.2153216 C66.0772312,23.8304096 65.7467001,23.7888236 65.3855997,23.8294424 C65.1114308,23.859423 64.8611443,23.8719955 64.7894974,24.2172559 C64.4436817,25.8990702 64.1303458,27.601194 64.4541899,29.3091205 C64.8878925,31.5963494 65.4524701,33.8584332 65.9253397,36.1388923 C66.1718051,37.3274776 67.0105516,38.1901449 67.4738682,39.2965253 M60.7075342,27.459028 C60.6139156,25.963867 60.6798307,23.4861163 61.7765061,21.1495646 C62.2856768,20.0663949 62.7623675,18.9783896 63.5084507,18.0286819 C64.3166278,16.9987036 65.0588898,16.8710443 66.0361536,17.7259747 C68.6087553,19.9735518 70.1400885,22.8555568 71.0122702,26.1466519 C71.5395914,28.1292393 71.7688616,30.1572811 72.107035,32.1708162 C72.6171609,35.2036913 72.1939665,38.0305708 71.1316817,40.8206998 C70.6702756,42.0324959 69.9901076,43.1379093 69.1360765,44.1166305 C68.4883884,44.8593754 67.8139522,44.9512514 66.9560999,44.3342315 C64.8898031,42.8487416 63.4683284,40.8371408 62.5034834,38.4889836 C61.1870909,35.2839619 60.6912942,31.9213003 60.7075342,27.459028" id="Fill-8" fill="#73493C"></path>
                <path d="M73.8567049,49.5898868 C73.8132369,48.816273 73.9280808,48.0455821 73.1955886,47.7055428 C72.4264236,47.3489399 71.6746298,47.4785251 70.959509,48.0231726 C70.1970994,48.6019215 69.5842766,49.2508218 69.2271987,50.1637641 C68.8894223,51.0318874 68.5207635,51.0796293 67.9986577,50.325502 C67.272921,49.2790772 66.1621193,48.9253973 65.0503524,48.6623297 C63.9356904,48.4002363 63.2601376,49.1767731 63.4425369,50.3410912 C63.5149175,50.8048697 63.5998441,51.2589051 63.815056,51.6885823 C65.0908856,54.2305955 66.8965416,56.323445 69.0206725,58.1814822 C69.6962253,58.7738717 70.0301414,58.6589014 70.5175045,58.0382565 C71.8782607,56.3059071 72.5711849,54.2588509 73.276655,52.2166663 C73.5816188,51.3319794 73.8605256,50.433652 73.8567049,49.5898868 M62.547912,49.8636721 C62.6666163,48.3349566 63.5824728,47.5613427 64.9895527,47.7464644 C66.1601891,47.8994334 67.2478291,48.3086498 68.1106065,49.1397488 C68.5584014,49.5704003 68.6838612,49.3209732 68.8942477,48.9526784 C69.4250391,48.0280443 70.1691122,47.346017 71.151559,46.9085452 C73.2284012,45.983911 74.8333215,47.079052 74.7725218,49.3852786 C74.7281283,51.0318874 74.0776675,52.5109123 73.5555617,54.025013 C72.9668658,55.7300812 72.2198974,57.3533062 71.0260992,58.7261298 C70.3302798,59.5260504 69.4317947,59.7189667 68.6433281,59.0291448 C66.2499411,56.9392182 64.0611502,54.6592984 62.8355044,51.6271998 C62.5961658,51.0357847 62.4475441,50.4112425 62.547912,49.8636721" id="Fill-9" fill="#73493C"></path>
                <path d="M60.4628772,11.6152151 C60.6009106,13.1619022 61.6203858,14.0840036 62.763105,14.8218817 C64.2025961,15.7528494 64.245978,15.6917701 65.4823628,14.4741234 C66.3312681,13.6387153 66.8498792,12.6279503 66.9829829,11.4428136 C67.0342524,10.9906293 66.9218538,10.5197271 66.5294446,10.2635878 C66.0857658,9.97395342 65.6578623,10.2655581 65.3324979,10.5551925 C64.9824847,10.8674854 64.6531765,11.2319913 64.4175338,11.6339329 C64.0103353,12.3284644 63.6563782,12.5254946 63.0588908,11.8023938 C62.6516924,11.3078479 62.11632,10.943342 61.4340407,10.8280794 C60.7419018,10.7118315 60.4993575,11.0369314 60.4628772,11.6152151 M59.466079,11.6349181 C59.5094609,9.98380493 60.9992355,9.23706043 62.5373218,10.2409293 C63.4582017,10.8428566 63.99456,10.6507522 64.663036,9.958191 C65.4715173,9.12179776 66.3480293,8.99274298 67.1328477,9.46758578 C67.8042815,9.87346801 68.2016205,10.9876738 67.962034,11.9097752 C67.606105,13.2860312 66.8360759,14.425851 65.9043505,15.4819329 C64.7912099,16.7448965 63.8673721,16.8690256 62.4633754,15.9449539 C61.3679818,15.2228382 60.4332986,14.3716677 59.8289096,13.1845607 C59.5784776,12.691 59.3980482,12.195469 59.466079,11.6349181" id="Fill-10" fill="#73493C"></path>
                <path d="M105.705994,55.4443933 C106.915999,55.8996075 107.575107,56.7412695 108.048288,57.7601744 C108.150597,57.9800332 108.41424,58.3296764 108.615908,57.8841476 C109.020226,56.9892159 109.78066,56.4274622 110.440752,55.7659489 C110.574541,55.6322902 110.93951,55.4715124 110.583394,55.2342199 C109.632114,54.5969201 109.038917,53.6370961 108.339476,52.7189194 C107.959751,53.325226 107.673481,53.8511437 107.31835,54.3286343 C106.957316,54.8138732 106.340509,54.9988645 105.705994,55.4443933 M108.28537,60.6774194 C108.058125,60.6687025 107.900726,60.5486034 107.823994,60.3500526 C107.764969,60.1960546 107.731522,60.028497 107.713815,59.8648136 C107.524936,58.094321 106.589396,56.8545887 104.968187,56.0913786 C104.60912,55.9228525 104.156598,55.7862882 104.195948,55.282647 C104.235298,54.7906283 104.723235,54.6744034 105.077382,54.559147 C106.824511,53.9925506 107.51018,52.6956745 107.703977,51.0259101 C107.74923,50.6394623 107.867279,50.2781966 108.337508,50.2588258 C108.777241,50.241392 108.977925,50.5251745 109.087121,50.9280875 C109.554399,52.6520901 110.571589,53.9547775 112.20362,54.7635091 C112.489889,54.9058846 112.775175,55.056977 112.774194,55.3959663 C112.772224,55.8095332 112.461361,56.0952527 112.10918,56.1969495 C110.214491,56.7441751 109.431431,58.1911751 108.924803,59.8861215 C108.76642,60.4159133 108.548029,60.669671 108.28537,60.6774194" id="Fill-11" fill="#73493C"></path>
                <path d="M29.4287447,66.390048 C30.6195946,66.7070113 31.5718786,67.1786828 32.2945057,68.004108 C32.6310718,68.3880486 32.8310316,68.298431 32.9607086,67.841853 C33.2626281,66.780592 33.729861,65.7929119 34.6910541,64.7825914 C33.1834361,64.7816481 32.2083844,64.0533873 31.2541207,63.1996618 C30.7670898,64.3722372 30.3820186,65.4401016 29.4287447,66.390048 M30.1335537,61.9752025 C29.9672504,61.3195791 30.0048666,60.8064005 30.656221,60.6903693 C31.2273934,60.5884882 31.3422218,61.1092136 31.4996159,61.4997576 C32.0292125,62.8166645 32.9824864,63.6477497 34.4742659,63.8666053 C34.7771754,63.9118858 35.0820646,63.9562229 35.3800246,64.0232003 C36.2847933,64.226019 36.3917025,64.5429823 35.7631159,65.2014358 C34.9157614,66.0910083 34.0060431,66.9485071 33.8506288,68.2239069 C33.7922247,68.7040685 33.8060833,69.1964936 33.8367702,69.6804286 C33.8565682,69.9841851 33.9327905,70.3200152 33.5774164,70.4369897 C33.2101634,70.5577376 32.8745872,70.4454798 32.6201829,70.0973862 C32.1202833,69.4106325 31.756,68.6163376 30.9789284,68.139006 C30.3127256,67.7286518 29.6326642,67.3786715 28.7991682,67.3994251 C28.3002585,67.4116885 27.8033287,67.2692437 27.6201971,66.7985156 C27.4271666,66.3032604 27.9894299,66.2164729 28.255713,65.9523368 C29.4039972,64.8118351 29.9246847,63.3958771 30.1335537,61.9752025" id="Fill-12" fill="#73493C"></path>
                <path d="M83.5388468,51.405639 C83.585072,52.021921 83.5918132,52.7501673 83.7054503,53.4611884 C83.8161983,54.1511563 84.1696288,54.4325025 84.7416662,53.7865547 C85.3108146,53.1453917 85.9232991,52.5281527 86.4057751,51.8247873 C88.5070977,48.7653872 89.8351105,45.4016739 90.3012151,41.7125943 C90.4967094,40.1728462 90.6931667,38.6311841 90.3474403,37.091436 C90.0315678,35.6827913 89.149436,35.3966604 88.0814402,36.3038582 C87.6451895,36.6751585 87.3225758,37.1115322 87.0163335,37.590012 C86.2478388,38.7900394 85.8664805,40.1240412 85.4071172,41.4561291 C84.3025264,44.6590732 83.7516755,47.9414449 83.5388468,51.405639 M82.805984,50.7683038 C83.0014783,47.464879 83.6515208,44.2619349 84.6848477,41.103011 C85.2944431,39.2398105 85.881889,37.4321136 87.2214581,35.9507401 C87.8281644,35.2789544 88.5090238,34.7813353 89.4710867,34.979426 C90.4755228,35.1870862 90.9339231,35.9153325 91.1371216,36.8483682 C91.4934412,38.4866832 91.2584629,40.1077729 91.077414,41.7470449 C90.559306,46.4552865 88.4907263,50.4505932 85.477418,54.016225 C85.0440564,54.5281984 84.622251,55.4086013 83.7632318,55.0956755 C83.0043674,54.8181572 82.9812548,53.944453 82.8714698,53.2305611 C82.8069471,52.8075849 82.7549437,52.3798239 82.7433873,51.9530199 C82.7327941,51.5587525 82.7828714,51.1635282 82.805984,50.7683038" id="Fill-13" fill="#73493C"></path>
                <path d="M81.8461927,60.5286605 C82.3511842,60.5347443 83.0871338,59.5664053 83.0917163,58.9570108 C83.0972153,58.4064265 82.7956868,58.1123759 82.3594327,58.0545797 C81.6803062,57.9643366 80.9663527,58.6518066 81.0075952,59.3220391 C81.0460882,59.9365035 81.4209367,60.2863223 81.8461927,60.5286605 M81.9644212,61.2901501 C81.0763327,61.3053596 80.3257192,60.3126854 80.2908922,59.075645 C80.2624807,58.0687753 81.3017917,57.0101932 82.3301047,57.0000535 C83.0743028,56.9919418 83.9458943,57.9075544 83.9669738,58.7217704 C83.9999678,59.9446152 82.9643228,61.2729127 81.9644212,61.2901501" id="Fill-14" fill="#73493C"></path>
                <path d="M55.0041509,56.9499032 C54.8951098,56.3720452 54.8179125,55.6747631 54.6287793,55.0092633 C53.596266,51.3745361 51.9519644,48.0239225 49.8078106,44.9179354 C48.9731153,43.709249 47.9483217,42.6613997 46.7401847,41.8302472 C46.2229631,41.4748645 45.5918755,40.9846483 44.9125396,41.4864217 C44.3161908,41.9284831 44.3412799,42.6084294 44.3875983,43.2989698 C44.5748016,46.0948397 46.0106706,48.3706373 47.4166256,50.6608814 C49.1188251,53.433637 51.176132,55.8760503 53.9706727,57.6259972 C54.1916498,57.7646831 54.4068372,57.9977525 54.6895721,57.843657 C54.9887115,57.6818568 55.0080108,57.365961 55.0041509,56.9499032 M55.7741935,57.1579321 C55.760684,57.3919646 55.760684,57.5922888 55.7375249,57.7897236 C55.6101494,58.8387097 55.2212682,59.0725685 54.2746369,58.6179868 C52.6042812,57.8176534 51.1684123,56.6648266 49.9477307,55.3087864 C47.7003255,52.8124396 45.7829387,50.0685769 44.4850598,46.9471803 C43.9263447,45.6017341 43.5085146,44.2042807 43.516129,42.7182224 C43.5200941,41.8148377 43.8559022,41.1146663 44.6790179,40.6774204 C45.4895891,40.2478792 46.2104185,40.4857641 46.9206333,40.9345672 C48.8505647,42.1557739 50.1764275,43.9211303 51.3604404,45.8155416 C53.4119575,49.0977754 54.9945013,52.5726285 55.7027861,56.4038274 C55.7500694,56.6619373 55.7529643,56.9296782 55.7741935,57.1579321" id="Fill-15" fill="#73493C"></path>
                <path d="M58.1602594,61.1675369 C57.5809115,61.0708974 57.1886541,61.272401 57.1976923,61.9673831 C57.2085382,62.7662012 57.6026032,63.3748245 58.282275,63.4416497 C58.7540685,63.4879133 59.2574956,63.1167764 59.2719567,62.4361875 C59.2909369,61.5962462 58.9321208,61.1017398 58.1602594,61.1675369 M58.0138408,60.0654352 C59.2014588,60.1096426 60.0953357,61.0883747 60.063702,62.313846 C60.033876,63.4858571 59.1698251,64.372062 58.0716852,64.3545846 C57.3558606,64.3422477 56.3553331,62.9327501 56.3878706,61.9807481 C56.4240234,60.8868711 57.1488861,60.0325366 58.0138408,60.0654352" id="Fill-16" fill="#73493C"></path>
                <path d="M84.5806452,48.41489 C84.835802,46.6273441 85.467714,44.9335308 86.010919,43.218888 C86.4325259,41.8886433 86.6687453,40.5006442 87.3614564,39.255611 C87.5099656,38.9867216 87.5797351,38.4981763 88.0053288,38.6373549 C88.4538467,38.7850546 88.1927096,39.1779739 88.0741015,39.4762138 C86.9697507,42.2739882 86.1544448,45.1522401 85.4148885,48.0522682 C85.3750203,48.2103827 85.3202014,48.3656568 85.2574089,48.5171437 C85.1637185,48.7443741 85.1467745,49.1088896 84.7779931,49.0179974 C84.5088823,48.9517219 84.6264937,48.6269717 84.5806452,48.41489" id="Fill-17" fill="#73493C"></path>
                <path d="M47.4722513,43.516129 C47.7028204,43.5416532 47.8417408,43.6749461 47.9758375,43.8243098 C50.1426086,46.2207465 51.6900266,48.9991006 53.1187835,51.8483551 C53.2461271,52.1017062 53.51625,52.5167104 53.0975596,52.6849809 C52.7685885,52.8173285 52.665363,52.3862535 52.5245133,52.1395198 C51.2800187,49.9605113 50.0905135,47.7484158 48.586508,45.7244431 C48.1996535,45.2054515 47.7423741,44.7375082 47.3526255,44.2194619 C47.1751162,43.983127 47.0661023,43.6806182 47.4722513,43.516129" id="Fill-18" fill="#73493C"></path>
                <path d="M8.58001728,41.4960301 C8.61233635,39.7408037 7.39276695,37.9274759 5.89468327,37.5048347 C3.54299607,36.8413535 1.43085017,39.081071 1.90613052,41.7349958 C2.26164023,43.7263764 3.94413269,44.9099594 6.15323579,44.7225353 C7.36425013,44.6203892 8.55150046,43.0413415 8.58001728,41.4960301" id="Fill-19" fill="#E86DB0"></path>
                <path d="M125.034615,24.9116195 C125.034615,25.0794819 125.028706,25.2483202 125.0356,25.4152066 C125.112425,27.3095141 127.041919,29.6039586 129.554495,28.533348 C130.876282,27.9712042 131.849401,26.4340923 131.769621,24.9887191 C131.655368,22.9382606 130.760059,21.5582757 128.749801,20.9570941 C128.21892,20.7980152 127.661445,20.7628812 127.18572,21.0829909 C125.82749,21.9954986 125.055299,23.2495867 125.034615,24.9116195" id="Fill-20" fill="#E86DB0"></path>
                <path d="M105.419355,55.5038677 C106.599081,55.9705591 107.241697,56.8334416 107.703037,57.8780358 C107.802786,58.1034378 108.059832,58.4618965 108.256453,58.0051347 C108.650655,57.0876394 109.39206,56.5117224 110.035634,55.8335305 C110.166076,55.696502 110.521912,55.5316706 110.174708,55.2883953 C109.247232,54.6350275 108.668878,53.6510038 107.986939,52.7096774 C107.616715,53.3312706 107.337609,53.870448 106.991364,54.3599774 C106.639365,54.8574506 106.037992,55.047106 105.419355,55.5038677" id="Fill-21" fill="#E86DB0"></path>
                <path d="M29.4193548,66.2294276 C30.5289449,66.5374503 31.416248,66.9958174 32.0895653,67.7979599 C32.4031651,68.1710708 32.5894803,68.083981 32.7103085,67.6402816 C32.991626,66.6089556 33.4269764,65.6491348 34.3225806,64.6673124 C32.9178378,64.6663956 32.0093206,63.9586768 31.1201728,63.1290323 C30.6663754,64.268533 30.3075803,65.3062762 29.4193548,66.2294276" id="Fill-22" fill="#E86DB0"></path>
                <path d="M81.8908558,60.6773912 C82.4843854,60.6834002 83.3493658,59.7269649 83.3547517,59.1250617 C83.3612149,58.5812456 83.0068206,58.2908098 82.49408,58.2337241 C81.6958851,58.1445904 80.8567572,58.8236093 80.9052305,59.4856027 C80.9504724,60.0925135 81.3910415,60.438032 81.8908558,60.6773912" id="Fill-23" fill="#E86DB0"></path>
                <path d="M58.1373817,61.3145348 C57.4529255,61.2115563 56.9895028,61.4262775 57.0001807,62.1668468 C57.0129943,63.0180632 57.4785526,63.666609 58.2815339,63.7378176 C58.8389225,63.7871159 59.4336839,63.3916344 59.4507687,62.6664024 C59.4731923,61.7713653 59.049278,61.2444218 58.1373817,61.3145348" id="Fill-24" fill="#E86DB0"></path>
            </g>
        </g>
    </g>
</svg>